<svg width="132" height="125" viewBox="0 0 132 125" fill="none" xmlns="http://www.w3.org/2000/svg">
<circle cx="55" cy="64" r="55" fill="#80FFDB"/>
<circle cx="64" cy="70" r="55" fill="#72EFDD"/>
<circle cx="71" cy="70" r="55" fill="#64DFDF"/>
<circle cx="77" cy="66" r="55" fill="#56CFE1"/>
<circle cx="77" cy="58" r="55" fill="#48BFE3"/>
<circle cx="71" cy="55" r="55" fill="#4EA8DE"/>
<circle cx="62" cy="55" r="55" fill="#5390D9"/>
<circle cx="58" cy="60" r="55" fill="#5E60CE"/>
<circle cx="62" cy="64" r="55" fill="#6930C3"/>
<circle cx="68" cy="61" r="55" fill="#7400B8"/>
<path d="M83 59.863C83 56.8963 82.1203 53.9962 80.4721 51.5295C78.8238 49.0628 76.4812 47.1402 73.7403 46.0048C70.9994 44.8695 67.9834 44.5725 65.0737 45.1513C62.1639 45.73 59.4912 47.1587 57.3934 49.2564C55.2956 51.3542 53.867 54.027 53.2882 56.9367C52.7095 59.8464 53.0065 62.8624 54.1418 65.6033C55.2771 68.3442 57.1997 70.6869 59.6665 72.3351C62.1332 73.9833 65.0333 74.863 68 74.863C71.9769 74.8585 75.7896 73.2767 78.6016 70.4647C81.4137 67.6526 82.9955 63.8399 83 59.863ZM68 72.863C65.4289 72.863 62.9154 72.1006 60.7776 70.6721C58.6398 69.2437 56.9735 67.2134 55.9896 64.8379C55.0056 62.4625 54.7482 59.8486 55.2498 57.3269C55.7514 54.8051 56.9895 52.4887 58.8076 50.6707C60.6257 48.8526 62.9421 47.6144 65.4638 47.1128C67.9856 46.6112 70.5995 46.8687 72.9749 47.8526C75.3503 48.8365 77.3807 50.5028 78.8091 52.6406C80.2376 54.7785 81 57.2919 81 59.863C80.9962 63.3097 79.6253 66.6141 77.1882 69.0512C74.751 71.4884 71.4467 72.8592 68 72.863ZM42 59.863C42 65.0054 43.5249 70.0322 46.3818 74.3079C49.2387 78.5835 53.2994 81.916 58.0502 83.8839C62.8011 85.8518 68.0289 86.3667 73.0724 85.3635C78.1159 84.3602 82.7486 81.884 86.3848 78.2478C90.021 74.6116 92.4972 69.9789 93.5004 64.9354C94.5036 59.8919 93.9888 54.6642 92.0209 49.9133C90.053 45.1624 86.7205 41.1017 82.4448 38.2448C78.1692 35.3879 73.1423 33.863 68 33.863C61.1068 33.8708 54.4981 36.6126 49.6239 41.4869C44.7496 46.3611 42.0078 52.9698 42 59.863ZM92 59.863C92 64.6098 90.5924 69.2499 87.9553 73.1967C85.3181 77.1435 81.5698 80.2197 77.1844 82.0362C72.799 83.8527 67.9734 84.3279 63.3178 83.4019C58.6623 82.4758 54.3859 80.1901 51.0294 76.8336C47.673 73.4771 45.3872 69.2008 44.4612 64.5452C43.5351 59.8897 44.0104 55.0641 45.8269 50.6786C47.6434 46.2932 50.7195 42.5449 54.6663 39.9078C58.6131 37.2706 63.2533 35.863 68 35.863C74.363 35.8703 80.4632 38.4012 84.9625 42.9005C89.4618 47.3998 91.9927 53.5001 92 59.863ZM49.21 68.0628C49.2627 68.1836 49.2911 68.3136 49.2935 68.4454C49.2959 68.5772 49.2722 68.7081 49.2239 68.8308C49.1756 68.9534 49.1036 69.0653 49.012 69.1601C48.9204 69.2549 48.811 69.3306 48.69 69.3831C48.564 69.4379 48.4276 69.4651 48.2901 69.4627C48.0952 69.4622 47.9046 69.4053 47.7412 69.2989C47.5779 69.1925 47.4488 69.0412 47.3696 68.863C47.3174 68.7429 47.2894 68.6137 47.2873 68.4827C47.2852 68.3517 47.309 68.2216 47.3573 68.0999C47.4056 67.9782 47.4775 67.8672 47.5689 67.7733C47.6602 67.6795 47.7692 67.6046 47.8896 67.553C48.1325 67.4468 48.4074 67.4408 48.6547 67.5362C48.902 67.6317 49.1015 67.8209 49.21 68.0628ZM45.6998 56.8528C45.725 56.6626 45.8045 56.4837 45.9288 56.3375C46.053 56.1913 46.2168 56.084 46.4004 56.0284C46.584 55.9728 46.7798 55.9714 46.9643 56.0241C47.1487 56.0769 47.3141 56.1817 47.4405 56.326C47.567 56.4703 47.6492 56.648 47.6773 56.8377C47.7054 57.0275 47.6783 57.2214 47.5991 57.3962C47.5199 57.5709 47.3921 57.7192 47.2309 57.8232C47.0696 57.9272 46.8819 57.9826 46.69 57.9826C46.6465 57.9843 46.6029 57.981 46.5601 57.9729C46.2977 57.938 46.0598 57.8005 45.8985 57.5906C45.7372 57.3807 45.6657 57.1153 45.6997 56.8528L45.6998 56.8528ZM46.8399 63.823C46.7936 63.8315 46.7466 63.8348 46.6997 63.8328C46.5082 63.8326 46.3207 63.7774 46.1597 63.6736C45.9986 63.5699 45.8708 63.422 45.7914 63.2477C45.712 63.0734 45.6844 62.8799 45.7119 62.6903C45.7394 62.5007 45.8208 62.3231 45.9464 62.1784C46.072 62.0338 46.2365 61.9283 46.4204 61.8746C46.6042 61.8208 46.7997 61.8211 46.9834 61.8753C47.1671 61.9295 47.3314 62.0353 47.4567 62.1802C47.582 62.3252 47.6629 62.503 47.6899 62.6927H47.6997C47.7341 62.9563 47.663 63.2229 47.5021 63.4345C47.3411 63.6462 47.1031 63.7858 46.8399 63.823ZM52.1196 72.823C52.2861 73.0293 52.3648 73.2927 52.3387 73.5565C52.3126 73.8202 52.1837 74.0631 51.98 74.2327C51.7991 74.3801 51.5732 74.4612 51.3399 74.4627C51.171 74.4619 51.005 74.4184 50.8574 74.3364C50.7098 74.2544 50.5852 74.1364 50.4954 73.9934C50.4055 73.8504 50.3532 73.687 50.3433 73.5184C50.3334 73.3498 50.3663 73.1814 50.4388 73.0289C50.5113 72.8764 50.6212 72.7447 50.7583 72.6459C50.8953 72.5472 51.055 72.4847 51.2227 72.4641C51.3903 72.4436 51.5604 72.4657 51.7172 72.5285C51.874 72.5912 52.0124 72.6925 52.1196 72.823ZM56.1997 76.633C56.3071 76.7082 56.3986 76.8039 56.4688 76.9146C56.539 77.0252 56.5867 77.1487 56.609 77.2779C56.6314 77.407 56.6279 77.5393 56.5989 77.6672C56.5699 77.795 56.5159 77.9158 56.44 78.0227C56.3498 78.1538 56.2287 78.2607 56.0874 78.3339C55.9461 78.4072 55.789 78.4445 55.6299 78.4426C55.423 78.4417 55.221 78.3791 55.0498 78.2629C54.8344 78.1101 54.6884 77.8782 54.6438 77.6179C54.5992 77.3576 54.6597 77.0903 54.8119 76.8745C54.9641 76.6587 55.1957 76.5121 55.4559 76.4669C55.7161 76.4216 55.9836 76.4814 56.1997 76.633ZM81.94 44.8328C81.7472 44.6519 81.6338 44.4022 81.6245 44.138C81.6152 43.8739 81.7107 43.6168 81.8902 43.4228C82.0697 43.2288 82.3186 43.1136 82.5827 43.1024C82.8468 43.0912 83.1045 43.1849 83.2998 43.363C83.4939 43.5452 83.608 43.7967 83.6174 44.0627C83.6267 44.3287 83.5304 44.5876 83.3496 44.783C83.1668 44.9722 82.9178 45.0831 82.6548 45.0924C82.3919 45.1017 82.1356 45.0086 81.9399 44.8328L81.94 44.8328ZM47.3399 50.9426C47.4126 50.7785 47.5282 50.6371 47.6747 50.5332C47.8211 50.4294 47.9929 50.3671 48.1718 50.3528C48.3508 50.3385 48.5303 50.3728 48.6913 50.4521C48.8524 50.5314 48.989 50.6527 49.0869 50.8032C49.1847 50.9537 49.24 51.1278 49.2471 51.3072C49.2541 51.4866 49.2126 51.6645 49.1269 51.8223C49.0412 51.98 48.9144 52.1116 48.7601 52.2033C48.6058 52.295 48.4295 52.3432 48.25 52.343C48.1162 52.3405 47.9839 52.3134 47.8599 52.263C47.7389 52.2106 47.6294 52.1349 47.5377 52.0402C47.446 51.9454 47.3739 51.8335 47.3256 51.7108C47.2773 51.5881 47.2537 51.4571 47.2561 51.3253C47.2586 51.1935 47.287 51.0634 47.3399 50.9426ZM85.48 49.1428C85.3764 48.9744 85.3251 48.7789 85.3326 48.5813C85.3401 48.3836 85.4062 48.1927 85.5224 48.0326C85.6385 47.8725 85.7996 47.7506 85.9852 47.6821C86.1708 47.6137 86.3725 47.6019 86.5648 47.6483C86.7571 47.6946 86.9313 47.797 87.0653 47.9425C87.1993 48.0879 87.2872 48.2699 87.3177 48.4653C87.3482 48.6607 87.32 48.8608 87.2367 49.0402C87.1534 49.2196 87.0187 49.3702 86.8496 49.4729C86.6939 49.5708 86.5136 49.6228 86.3296 49.6228C86.1588 49.622 85.9911 49.5775 85.8423 49.4935C85.6936 49.4094 85.5689 49.2887 85.48 49.1428ZM87.23 71.553C87.1399 71.7001 87.0134 71.8216 86.8627 71.9057C86.712 71.9898 86.5422 72.0336 86.3697 72.033C86.1891 72.0312 86.0127 71.9793 85.8599 71.8831C85.6903 71.7803 85.5551 71.6295 85.4714 71.4498C85.3877 71.27 85.3592 71.0695 85.3897 70.8736C85.4201 70.6776 85.5081 70.4952 85.6424 70.3493C85.7767 70.2035 85.9514 70.1008 86.1441 70.0544C86.3369 70.0079 86.5391 70.0198 86.7251 70.0885C86.9111 70.1572 87.0725 70.2795 87.1889 70.4401C87.3052 70.6006 87.3712 70.7921 87.3785 70.9903C87.3859 71.1884 87.3342 71.3843 87.23 71.553V71.553ZM67.5498 81.383C67.5351 81.6352 67.4243 81.8721 67.2402 82.0451C67.0561 82.218 66.8127 82.3138 66.5601 82.3127H66.4897C66.293 82.2998 66.1045 82.2289 65.948 82.1088C65.7916 81.9888 65.6742 81.8251 65.6109 81.6384C65.5475 81.4516 65.5409 81.2503 65.5919 81.0598C65.6429 80.8694 65.7493 80.6983 65.8976 80.5683C66.0458 80.4383 66.2293 80.3551 66.4248 80.3294C66.6203 80.3037 66.819 80.3365 66.9959 80.4237C67.1727 80.5109 67.3198 80.6486 67.4184 80.8193C67.517 80.9901 67.5627 81.1863 67.5498 81.383ZM61.77 80.4729C61.6982 80.667 61.5686 80.8343 61.3987 80.9524C61.2288 81.0704 61.0267 81.1335 60.8198 81.1331C60.7077 81.136 60.5959 81.119 60.4897 81.0828C60.3028 81.0165 60.1398 80.8962 60.0213 80.7373C59.9027 80.5783 59.8339 80.3878 59.8237 80.1897C59.8134 79.9917 59.8621 79.7951 59.9636 79.6247C60.065 79.4543 60.2148 79.3179 60.3938 79.2326C60.5728 79.1473 60.7731 79.117 60.9693 79.1456C61.1656 79.1741 61.3489 79.2602 61.4963 79.393C61.6436 79.5258 61.7482 79.6992 61.7969 79.8914C61.8456 80.0836 61.8363 80.286 61.77 80.4729ZM76.94 40.283C76.9983 40.1654 77.0794 40.0606 77.1786 39.9747C77.2778 39.8887 77.3931 39.8234 77.5178 39.7825C77.6425 39.7415 77.774 39.7258 77.9049 39.7362C78.0357 39.7466 78.1631 39.7829 78.2798 39.843H78.29C78.5246 39.9664 78.7012 40.1771 78.7817 40.4297C78.8621 40.6823 78.8398 40.9564 78.7197 41.1927C78.6359 41.3562 78.5083 41.4934 78.3511 41.5887C78.1939 41.684 78.0134 41.7339 77.8296 41.7327C77.6694 41.7356 77.5111 41.6978 77.3696 41.6228C77.2533 41.5631 77.15 41.481 77.0655 41.3814C76.981 41.2817 76.917 41.1663 76.8771 41.0419C76.8372 40.9175 76.8222 40.7864 76.833 40.6562C76.8438 40.526 76.8801 40.3991 76.94 40.283ZM71.3296 38.593C71.3559 38.4643 71.4072 38.342 71.4807 38.2331C71.5543 38.1243 71.6485 38.0309 71.7581 37.9585C71.8677 37.886 71.9905 37.8359 72.1194 37.8109C72.2484 37.7859 72.3811 37.7865 72.5098 37.8128C72.6385 37.839 72.7608 37.8904 72.8697 37.9639C72.9785 38.0374 73.0719 38.1317 73.1443 38.2413C73.2168 38.3508 73.267 38.4736 73.292 38.6026C73.317 38.7316 73.3163 38.8642 73.2901 38.9929C73.2418 39.2177 73.1184 39.4193 72.9403 39.5647C72.7622 39.7101 72.5399 39.7905 72.3101 39.7927C72.2429 39.7917 72.1759 39.785 72.1099 39.7727C71.9808 39.7472 71.8581 39.6963 71.7488 39.623C71.6396 39.5498 71.546 39.4555 71.4734 39.3458C71.4008 39.2361 71.3508 39.113 71.3261 38.9838C71.3014 38.8546 71.3026 38.7218 71.3296 38.593ZM89.5 58.7727C89.6315 58.7723 89.7617 58.7978 89.8832 58.8479C90.0048 58.898 90.1152 58.9717 90.2081 59.0646C90.3011 59.1576 90.3747 59.268 90.4248 59.3895C90.4749 59.511 90.5005 59.6413 90.5 59.7727V59.863C90.5 60.1283 90.3947 60.3826 90.2071 60.5701C90.0196 60.7577 89.7652 60.863 89.5 60.863C89.2348 60.863 88.9804 60.7577 88.7929 60.5701C88.6054 60.3826 88.5 60.1283 88.5 59.863V59.783C88.4985 59.6507 88.5233 59.5195 88.5729 59.397C88.6225 59.2744 88.6959 59.1629 88.7889 59.0689C88.882 58.9749 88.9927 58.9003 89.1148 58.8495C89.2368 58.7987 89.3678 58.7726 89.5 58.7727ZM54.7398 42.9128C54.5868 42.6951 54.5262 42.4256 54.5712 42.1634C54.6163 41.9011 54.7632 41.6673 54.98 41.5129C55.1962 41.3616 55.4635 41.302 55.7235 41.3474C55.9835 41.3928 56.2149 41.5393 56.367 41.7549C56.5192 41.9706 56.5796 42.2377 56.5352 42.4979C56.4908 42.758 56.345 42.9899 56.1299 43.1428C55.9662 43.2673 55.7658 43.3341 55.5601 43.3328C55.3999 43.3325 55.2421 43.2943 55.0995 43.2213C54.9569 43.1483 54.8336 43.0426 54.7398 42.9128ZM73.3696 80.7126C73.3968 80.8407 73.3983 80.9729 73.3743 81.1015C73.3503 81.2302 73.3011 81.3529 73.2295 81.4625C73.158 81.5722 73.0656 81.6666 72.9575 81.7404C72.8494 81.8143 72.7278 81.8661 72.5996 81.8928C72.5302 81.9046 72.46 81.9113 72.3896 81.9128C72.1434 81.9101 71.9068 81.8168 71.725 81.6506C71.5433 81.4845 71.4292 81.2571 71.4044 81.0121C71.3797 80.7671 71.4462 80.5216 71.5911 80.3225C71.736 80.1234 71.9492 79.9846 72.1899 79.9328C72.4497 79.8803 72.7198 79.9329 72.9409 80.079C73.162 80.2252 73.3162 80.453 73.3696 80.7127V80.7126ZM78.79 78.4929C78.867 78.645 78.9041 78.8141 78.8978 78.9844C78.8915 79.1548 78.842 79.3207 78.754 79.4667C78.666 79.6126 78.5423 79.7338 78.3946 79.8189C78.247 79.9039 78.0801 79.9501 77.9096 79.9529C77.7263 79.9519 77.5468 79.9012 77.3901 79.806C77.2334 79.7109 77.1055 79.5751 77.02 79.4129C76.9589 79.2966 76.9214 79.1694 76.9096 79.0386C76.8978 78.9078 76.912 78.776 76.9513 78.6506C76.9906 78.5253 77.0543 78.409 77.1387 78.3083C77.2231 78.2077 77.3265 78.1247 77.443 78.0641C77.5596 78.0036 77.6869 77.9666 77.8178 77.9554C77.9487 77.9442 78.0805 77.9589 78.2056 77.9988C78.3308 78.0386 78.4468 78.1028 78.5471 78.1876C78.6474 78.2724 78.7299 78.3762 78.79 78.493L78.79 78.4929ZM59.7998 39.9529C59.7544 39.8302 59.734 39.6997 59.7397 39.569C59.7454 39.4383 59.7771 39.3101 59.833 39.1918C59.8889 39.0735 59.9678 38.9676 60.0651 38.8802C60.1625 38.7928 60.2763 38.7258 60.3999 38.6829C60.5233 38.6383 60.6543 38.6184 60.7854 38.6244C60.9166 38.6304 61.0452 38.6622 61.1641 38.7179C61.2829 38.7736 61.3896 38.8522 61.4781 38.9492C61.5665 39.0461 61.635 39.1596 61.6797 39.283C61.7243 39.4065 61.7442 39.5375 61.7382 39.6686C61.7322 39.7997 61.7004 39.9284 61.6447 40.0472C61.5889 40.166 61.5104 40.2727 61.4134 40.3612C61.3164 40.4497 61.203 40.5182 61.0796 40.5628C60.9556 40.608 60.8238 40.628 60.692 40.6217C60.5602 40.6155 60.4309 40.583 60.3118 40.5262C60.1927 40.4694 60.086 40.3895 59.9981 40.2911C59.9102 40.1927 59.8428 40.0777 59.7998 39.9529V39.9529ZM65.4697 38.4827C65.4569 38.2863 65.5026 38.0904 65.6009 37.9199C65.6992 37.7493 65.8458 37.6116 66.0222 37.5242C66.1986 37.4368 66.3969 37.4035 66.5922 37.4286C66.7875 37.4537 66.9709 37.536 67.1195 37.6651C67.2681 37.7942 67.3752 37.9644 67.4273 38.1543C67.4793 38.3442 67.474 38.5452 67.4121 38.732C67.3501 38.9189 67.2342 39.0833 67.0791 39.2044C66.9239 39.3256 66.7363 39.3981 66.54 39.4128H66.4697C66.2159 39.4142 65.9712 39.3188 65.7854 39.1459C65.5996 38.9731 65.4867 38.7359 65.4697 38.4827L65.4697 38.4827ZM89.6699 65.9329C89.6121 66.143 89.4868 66.3283 89.3134 66.4603C89.1399 66.5922 88.9278 66.6634 88.7099 66.6629C88.6183 66.6645 88.5271 66.651 88.4399 66.6229C88.3138 66.5875 88.1959 66.5277 88.0929 66.4467C87.99 66.3657 87.904 66.2652 87.8399 66.151C87.7758 66.0367 87.7349 65.911 87.7195 65.7809C87.704 65.6508 87.7144 65.519 87.75 65.3929C87.7844 65.2657 87.8436 65.1465 87.9244 65.0423C88.0051 64.9381 88.1057 64.8509 88.2203 64.7858C88.335 64.7208 88.4614 64.679 88.5922 64.6631C88.7231 64.6472 88.8558 64.6574 88.9827 64.6931C89.1096 64.7288 89.2282 64.7893 89.3315 64.8711C89.4349 64.9529 89.521 65.0543 89.5849 65.1696C89.6488 65.2849 89.6893 65.4118 89.7038 65.5428C89.7184 65.6738 89.7069 65.8064 89.6699 65.9329H89.6699ZM83.4097 74.883C83.5919 75.077 83.69 75.3352 83.6826 75.6013C83.6751 75.8673 83.5626 76.1196 83.3697 76.303C83.2732 76.393 83.1599 76.4632 83.0363 76.5094C82.9127 76.5556 82.7812 76.577 82.6493 76.5724C82.5174 76.5677 82.3877 76.5371 82.2677 76.4822C82.1476 76.4273 82.0396 76.3493 81.9498 76.2527C81.7698 76.0588 81.674 75.8015 81.6831 75.5372C81.6923 75.2728 81.8057 75.0228 81.9986 74.8418C82.1916 74.6608 82.4483 74.5636 82.7127 74.5713C82.9771 74.579 83.2277 74.6911 83.4098 74.883H83.4097ZM87.7197 54.2527C87.6653 54.0618 87.6688 53.8591 87.7296 53.6702C87.7904 53.4813 87.9058 53.3146 88.0613 53.1913C88.2168 53.068 88.4054 52.9936 88.6032 52.9774C88.801 52.9613 88.9992 53.0042 89.1726 53.1007C89.3461 53.1972 89.487 53.3429 89.5776 53.5195C89.6682 53.6961 89.7044 53.8955 89.6816 54.0927C89.6589 54.2898 89.5782 54.4758 89.4497 54.6271C89.3213 54.7784 89.1508 54.8882 88.96 54.9426C88.8717 54.9657 88.7812 54.9791 88.69 54.9826C88.4712 54.9819 88.2584 54.9104 88.0836 54.7789C87.9087 54.6473 87.7811 54.4627 87.7197 54.2527V54.2527ZM50.6597 47.113C50.5564 47.0308 50.4705 46.9289 50.4069 46.8132C50.3433 46.6975 50.3033 46.5704 50.2891 46.4392C50.2749 46.3079 50.2869 46.1752 50.3243 46.0486C50.3617 45.922 50.4238 45.8041 50.5071 45.7016C50.5904 45.5992 50.6931 45.5143 50.8094 45.4518C50.9257 45.3893 51.0532 45.3505 51.1846 45.3376C51.3159 45.3247 51.4486 45.3379 51.5748 45.3766C51.701 45.4152 51.8183 45.4785 51.9199 45.5628C52.0218 45.6449 52.1063 45.7466 52.1686 45.8617C52.2309 45.9768 52.2696 46.1032 52.2827 46.2334C52.2957 46.3636 52.2827 46.4952 52.2445 46.6204C52.2063 46.7455 52.1436 46.8619 52.0601 46.9627C51.9692 47.0798 51.8523 47.1742 51.7187 47.2384C51.585 47.3026 51.4383 47.3349 51.2901 47.3328C51.0606 47.3364 50.8372 47.2586 50.6597 47.113ZM64.98 78.1028C64.9232 78.1044 64.8663 78.1012 64.8101 78.093C64.5484 78.0462 64.3156 77.8982 64.1621 77.6811C64.0086 77.464 63.9467 77.1952 63.9898 76.9329C64.0222 76.7454 64.1074 76.5711 64.2354 76.4304C64.3634 76.2897 64.5289 76.1885 64.7124 76.1385C64.896 76.0886 65.0899 76.0921 65.2716 76.1485C65.4532 76.205 65.615 76.3121 65.7379 76.4573C65.8608 76.6025 65.9397 76.7797 65.9653 76.9682C65.991 77.1567 65.9624 77.3486 65.8828 77.5213C65.8032 77.6941 65.676 77.8406 65.5161 77.9436C65.3562 78.0466 65.1702 78.1018 64.98 78.1028ZM70 42.4426C70.0325 42.2553 70.1178 42.0811 70.2459 41.9405C70.3739 41.8 70.5394 41.6988 70.7229 41.649C70.9065 41.5992 71.1004 41.6028 71.2819 41.6593C71.4635 41.7159 71.6251 41.823 71.7479 41.9682C71.8707 42.1134 71.9495 42.2906 71.9751 42.479C72.0007 42.6675 71.972 42.8593 71.8924 43.032C71.8128 43.2047 71.6856 43.3511 71.5257 43.454C71.3658 43.5569 71.1799 43.6121 70.9898 43.613C70.9329 43.6151 70.876 43.6116 70.8198 43.6028C70.5575 43.5572 70.3239 43.4095 70.1703 43.1921C70.0166 42.9746 69.9554 42.7051 70 42.4426ZM84.5 59.863V59.7927C84.4994 59.6614 84.5246 59.5312 84.5743 59.4097C84.6239 59.2881 84.697 59.1775 84.7894 59.0842C84.9761 58.8957 85.2299 58.7891 85.4951 58.7878C85.7603 58.7865 86.0152 58.8907 86.2037 59.0773C86.3921 59.2639 86.4987 59.5177 86.5 59.783V59.863C86.5 60.1283 86.3947 60.3826 86.2071 60.5701C86.0196 60.7577 85.7652 60.863 85.5 60.863C85.2348 60.863 84.9804 60.7577 84.7929 60.5701C84.6054 60.3826 84.5 60.1283 84.5 59.863ZM77.2598 75.883C77.0284 76.013 76.7553 76.0471 76.4991 75.9779C76.2429 75.9087 76.0241 75.7417 75.8897 75.5129C75.7589 75.2834 75.7245 75.0114 75.7938 74.7565C75.8632 74.5017 76.0308 74.2846 76.2598 74.153C76.3723 74.086 76.4971 74.042 76.6269 74.0238C76.7566 74.0056 76.8887 74.0135 77.0154 74.0471C77.142 74.0806 77.2607 74.139 77.3645 74.219C77.4683 74.299 77.555 74.3989 77.6196 74.5129C77.6864 74.6264 77.7301 74.7519 77.7481 74.8824C77.7662 75.0128 77.7583 75.1455 77.7248 75.2729C77.6914 75.4002 77.6331 75.5197 77.5533 75.6244C77.4734 75.7291 77.3737 75.817 77.2598 75.883ZM52.48 54.2527C52.4104 54.4461 52.2828 54.6134 52.1145 54.7315C51.9463 54.8497 51.7457 54.913 51.5401 54.9128C51.424 54.9132 51.3087 54.8929 51.1997 54.8528C51.0139 54.7855 50.8521 54.6646 50.7349 54.5054C50.6178 54.3462 50.5504 54.1558 50.5414 53.9584C50.5324 53.7609 50.5822 53.5652 50.6844 53.396C50.7866 53.2268 50.9367 53.0917 51.1157 53.0078C51.2947 52.9239 51.4946 52.895 51.69 52.9247C51.8854 52.9543 52.0677 53.0413 52.2137 53.1745C52.3597 53.3078 52.463 53.4813 52.5104 53.6732C52.5578 53.8651 52.5472 54.0668 52.48 54.2527ZM80.5996 49.2127C80.4721 49.0614 80.3923 48.8756 80.3704 48.679C80.3484 48.4823 80.3852 48.2836 80.4762 48.1078C80.5672 47.9321 80.7082 47.7873 80.8815 47.6918C81.0548 47.5962 81.2525 47.5541 81.4497 47.5709C81.6469 47.5877 81.8346 47.6626 81.9892 47.7861C82.1438 47.9096 82.2584 48.0762 82.3183 48.2648C82.3783 48.4533 82.381 48.6555 82.326 48.8456C82.2711 49.0357 82.1611 49.2052 82.0098 49.3328C81.8304 49.4829 81.6035 49.5644 81.3697 49.5628C81.2237 49.5634 81.0793 49.5323 80.9464 49.4719C80.8135 49.4115 80.6952 49.323 80.5996 49.2127L80.5996 49.2127ZM82.1797 71.7527C82.0836 71.8623 81.9652 71.9503 81.8324 72.0106C81.6996 72.071 81.5556 72.1024 81.4097 72.1028C81.1754 72.1077 80.9476 72.0258 80.7701 71.8728C80.6685 71.7888 80.5847 71.6855 80.5235 71.5687C80.4624 71.452 80.4251 71.3242 80.414 71.1929C80.4028 71.0616 80.4179 70.9294 80.4584 70.804C80.4989 70.6786 80.564 70.5626 80.65 70.4626H80.6397C80.8117 70.2617 81.0561 70.1367 81.3198 70.1148C81.5834 70.0929 81.845 70.1759 82.0478 70.3458C82.2506 70.5157 82.3782 70.7587 82.4029 71.0221C82.4276 71.2855 82.3474 71.548 82.1797 71.7526L82.1797 71.7527ZM75.8296 44.1829C75.9276 44.0124 76.0738 43.8748 76.2499 43.7874C76.426 43.7 76.624 43.6668 76.819 43.6918C77.0139 43.7169 77.1971 43.7992 77.3454 43.9283C77.4936 44.0574 77.6003 44.2275 77.6519 44.4172C77.7035 44.6069 77.6978 44.8076 77.6354 44.994C77.5731 45.1804 77.4568 45.3442 77.3015 45.4646C77.1461 45.5851 76.9585 45.6567 76.7624 45.6706C76.5664 45.6845 76.3705 45.64 76.1997 45.5427C75.9714 45.4105 75.8045 45.1935 75.7352 44.9389C75.6659 44.6843 75.6998 44.4126 75.8296 44.1829L75.8296 44.1829ZM71.23 78.0828C71.1703 78.0913 71.1101 78.0947 71.0498 78.093C70.8601 78.0917 70.6747 78.0362 70.5154 77.9333C70.3561 77.8303 70.2294 77.6841 70.1502 77.5117C70.071 77.3393 70.0426 77.1479 70.0683 76.9599C70.094 76.772 70.1727 76.5952 70.2953 76.4504C70.4179 76.3056 70.5791 76.1987 70.7603 76.1423C70.9414 76.0859 71.1349 76.0823 71.318 76.1319C71.5011 76.1815 71.6663 76.2823 71.7941 76.4224C71.922 76.5625 72.0073 76.7362 72.04 76.9231C72.0831 77.1839 72.0225 77.4512 71.8711 77.6679C71.7198 77.8845 71.4897 78.0334 71.23 78.0828ZM84.0796 52.8728C84.3289 52.7812 84.6044 52.7924 84.8454 52.904C85.0864 53.0155 85.2732 53.2182 85.3648 53.4675C85.4563 53.7168 85.4451 53.9923 85.3336 54.2333C85.222 54.4743 85.0193 54.6611 84.77 54.7527C84.6608 54.792 84.5457 54.8123 84.4297 54.8128C84.1946 54.8133 83.9668 54.7312 83.7862 54.5806C83.6056 54.4301 83.4838 54.2208 83.442 53.9894C83.4003 53.7581 83.4413 53.5194 83.5578 53.3152C83.6744 53.1111 83.8591 52.9544 84.0796 52.8728L84.0796 52.8728ZM58.3496 45.2326C58.2829 45.1191 58.2394 44.9936 58.2214 44.8632C58.2034 44.7328 58.2114 44.6002 58.2449 44.4729C58.2784 44.3456 58.3367 44.2262 58.4165 44.1215C58.4964 44.0168 58.5961 43.929 58.71 43.863C58.8226 43.7963 58.9474 43.7526 59.0771 43.7346C59.2068 43.7166 59.3388 43.7245 59.4654 43.758C59.5919 43.7915 59.7106 43.8499 59.8144 43.9297C59.9181 44.0095 60.005 44.1092 60.0699 44.2229C60.1366 44.3364 60.1802 44.462 60.1982 44.5924C60.2163 44.7228 60.2083 44.8555 60.1749 44.9828C60.1414 45.1101 60.0831 45.2296 60.0034 45.3343C59.9236 45.4391 59.8239 45.527 59.71 45.593C59.5574 45.6789 59.3851 45.7236 59.21 45.7229C59.036 45.7249 58.8646 45.6805 58.7134 45.5943C58.5622 45.5082 58.4367 45.3834 58.3496 45.2327V45.2326ZM52.5 65.533C52.5904 65.7824 52.5792 66.0574 52.4688 66.2987C52.3584 66.54 52.1576 66.7283 51.9097 66.823C51.7973 66.8623 51.6791 66.8826 51.5601 66.883C51.3775 66.8826 51.1985 66.8321 51.0425 66.7372C50.8865 66.6423 50.7595 66.5065 50.6752 66.3446C50.5908 66.1826 50.5524 66.0007 50.5641 65.8185C50.5758 65.6363 50.6371 65.4607 50.7415 65.3109C50.8458 65.161 50.9891 65.0426 51.156 64.9684C51.3228 64.8942 51.5068 64.867 51.6879 64.8899C51.8691 64.9128 52.0405 64.9848 52.1837 65.0982C52.3268 65.2115 52.4362 65.3619 52.5 65.533ZM85.3897 66.1926C85.318 66.3839 85.1896 66.5488 85.0216 66.665C84.8536 66.7813 84.654 66.8434 84.4497 66.843C84.3338 66.8426 84.2189 66.8223 84.1099 66.783C83.986 66.7389 83.872 66.6707 83.7746 66.5824C83.6773 66.494 83.5984 66.3872 83.5426 66.2681C83.4868 66.149 83.4551 66.0201 83.4495 65.8887C83.4439 65.7573 83.4644 65.6261 83.5098 65.5027C83.5548 65.3789 83.6238 65.2651 83.7128 65.168C83.8019 65.0709 83.9092 64.9923 84.0287 64.9368C84.1481 64.8812 84.2774 64.8498 84.409 64.8443C84.5407 64.8388 84.6721 64.8593 84.7958 64.9047C84.9195 64.9501 85.033 65.0195 85.1298 65.1088C85.2266 65.1982 85.3049 65.3058 85.3601 65.4254C85.4152 65.5451 85.4462 65.6744 85.4513 65.8061C85.4564 65.9377 85.4354 66.0691 85.3897 66.1926ZM50.5 60.903C50.2348 60.903 49.9804 60.7977 49.7929 60.6101C49.6054 60.4226 49.5 60.1683 49.5 59.903C49.5 59.6378 49.6054 59.3835 49.7929 59.1959C49.9804 59.0084 50.2348 58.903 50.5 58.903C50.6309 58.9014 50.7608 58.9259 50.8822 58.9749C51.0036 59.024 51.114 59.0966 51.207 59.1887C51.3001 59.2808 51.3739 59.3905 51.4242 59.5114C51.4745 59.6322 51.5003 59.7619 51.5 59.8928C51.4996 60.1588 51.3944 60.414 51.2072 60.603C51.0201 60.7921 50.766 60.8999 50.5 60.903ZM53.9297 49.4128C53.7473 49.2622 53.6239 49.0521 53.5812 48.8195C53.5386 48.5868 53.5793 48.3466 53.6964 48.141C53.8134 47.9355 53.9992 47.7778 54.221 47.6958C54.4429 47.6138 54.6866 47.6127 54.9091 47.6927C55.1317 47.7726 55.319 47.9286 55.4379 48.133C55.5568 48.3375 55.5998 48.5774 55.5592 48.8104C55.5187 49.0434 55.3972 49.2546 55.2163 49.4069C55.0353 49.5592 54.8064 49.6427 54.5698 49.6428C54.3354 49.6476 54.1075 49.5657 53.9297 49.4128ZM63.9297 42.8127C63.9049 42.6832 63.9063 42.5501 63.9338 42.4211C63.9613 42.2921 64.0144 42.17 64.0899 42.0619C64.1654 41.9538 64.2619 41.8619 64.3735 41.7917C64.4851 41.7215 64.6096 41.6743 64.7398 41.653C64.8691 41.6296 65.0019 41.632 65.1303 41.66C65.2588 41.6881 65.3804 41.7413 65.4882 41.8165C65.5961 41.8917 65.688 41.9876 65.7586 42.0984C65.8293 42.2093 65.8773 42.3331 65.8999 42.4626C65.9431 42.7235 65.8825 42.9909 65.7311 43.2076C65.5798 43.4244 65.3496 43.5734 65.0899 43.6228C65.0302 43.6313 64.9699 43.6347 64.9097 43.633C64.6761 43.6328 64.45 43.5506 64.2709 43.4006C64.0918 43.2507 63.971 43.0426 63.9297 42.8128V42.8127ZM55.25 71.8928C55.1511 71.9789 55.0359 72.0442 54.9112 72.0849C54.7866 72.1255 54.655 72.1407 54.5244 72.1295C54.3937 72.1183 54.2667 72.0809 54.1508 72.0196C54.0348 71.9583 53.9324 71.8744 53.8496 71.7727H53.8399C53.6709 71.569 53.5889 71.307 53.6113 71.0433C53.6338 70.7796 53.759 70.5353 53.96 70.363C54.1655 70.1938 54.429 70.1116 54.6943 70.1339C54.9596 70.1563 55.2056 70.2814 55.3799 70.4827L55.3697 70.4929C55.4557 70.5918 55.5209 70.707 55.5615 70.8316C55.6022 70.9562 55.6174 71.0876 55.6062 71.2182C55.595 71.3488 55.5578 71.4758 55.4966 71.5917C55.4354 71.7076 55.3515 71.81 55.25 71.8928ZM59.27 76.033C59.0485 76.0349 58.8325 75.9635 58.6558 75.8299C58.4791 75.6963 58.3515 75.508 58.2929 75.2944C58.2343 75.0807 58.248 74.8537 58.3319 74.6486C58.4157 74.4436 58.5651 74.272 58.7566 74.1606C58.9481 74.0493 59.171 74.0044 59.3907 74.0329C59.6104 74.0614 59.8145 74.1618 59.9712 74.3184C60.1279 74.475 60.2285 74.679 60.2572 74.8987C60.2859 75.1184 60.2411 75.3414 60.1299 75.533C60.0433 75.6847 59.9182 75.8108 59.7672 75.8986C59.6162 75.9865 59.4447 76.0328 59.27 76.033V76.033ZM67.81 29.8528C68.075 29.8536 68.3288 29.9593 68.5162 30.1466C68.7035 30.334 68.8092 30.5878 68.81 30.8528C68.8104 30.9829 68.7849 31.1117 68.7351 31.2319C68.6854 31.3521 68.6122 31.4612 68.52 31.553C68.4299 31.6481 68.3213 31.7237 68.2009 31.7753C68.0805 31.8268 67.9508 31.8532 67.8198 31.8528C66.8696 31.863 65.8896 31.9129 64.9297 32.013C64.8936 32.0206 64.8567 32.0239 64.8198 32.0227C64.6316 32.0211 64.4475 31.9666 64.2887 31.8656C64.1299 31.7645 64.0026 31.6209 63.9213 31.4511C63.8401 31.2813 63.8081 31.0921 63.8291 30.905C63.8501 30.7179 63.9232 30.5404 64.04 30.3928C64.1212 30.2902 64.2225 30.2054 64.3377 30.1435C64.4529 30.0816 64.5796 30.044 64.7099 30.033C65.73 29.9231 66.77 29.863 67.8101 29.8528H67.81ZM79.6098 88.5427C79.7032 88.7923 79.696 89.0684 79.5898 89.3127C79.5358 89.4323 79.4584 89.5399 79.3622 89.6292C79.2661 89.7185 79.153 89.7877 79.0298 89.8327C78.918 89.8762 78.7995 89.9 78.6797 89.903C78.4452 89.9032 78.218 89.8212 78.0377 89.6713C77.8573 89.5214 77.7351 89.3131 77.6924 89.0826C77.6496 88.852 77.689 88.6137 77.8036 88.4091C77.9182 88.2046 78.1008 88.0466 78.3198 87.9626C78.5682 87.8747 78.8409 87.8859 79.0812 87.9939C79.3215 88.102 79.5108 88.2986 79.6099 88.5427H79.6098ZM78.9296 31.8528C81.1874 32.7041 83.3385 33.8149 85.3398 35.1629C85.449 35.2362 85.5427 35.3304 85.6154 35.4401C85.6881 35.5497 85.7385 35.6727 85.7636 35.8018C85.7887 35.931 85.788 36.0638 85.7616 36.1927C85.7352 36.3217 85.6836 36.4441 85.6098 36.553C85.5371 36.6615 85.4436 36.7546 85.3349 36.8269C85.2261 36.8992 85.1041 36.9494 84.9759 36.9745C84.8477 36.9995 84.7158 36.9991 84.5878 36.9731C84.4598 36.9471 84.3382 36.8961 84.2299 36.823C82.3533 35.5665 80.3405 34.5265 78.2299 33.7229C77.9807 33.63 77.7785 33.4419 77.6678 33.2001C77.5571 32.9582 77.547 32.6822 77.6396 32.4329C77.7386 32.1887 77.928 31.9922 78.1683 31.8841C78.4086 31.776 78.6813 31.7648 78.9297 31.8528H78.9296ZM52.5795 35.1028C52.4505 34.8713 52.4182 34.5982 52.4897 34.343C52.5447 34.1528 52.6548 33.9832 52.806 33.8554C52.9573 33.7276 53.1429 33.6475 53.3396 33.625C53.5364 33.6026 53.7353 33.6388 53.9115 33.7292C54.0876 33.8196 54.2331 33.9601 54.3295 34.133C54.4578 34.3647 54.4902 34.6375 54.4199 34.8928C54.3434 35.1473 54.1714 35.3624 53.9399 35.4929C53.7926 35.5741 53.628 35.6187 53.4599 35.6228C53.2801 35.6227 53.1035 35.5744 52.9487 35.483C52.7939 35.3915 52.6664 35.2602 52.5796 35.1028H52.5795ZM37.0098 61.9426C37 61.6028 36.9898 61.2527 36.9898 60.8728C36.9898 60.1926 37.0098 59.513 37.0601 58.843C37.0775 58.5792 37.1988 58.3331 37.3974 58.1587C37.5961 57.9843 37.8559 57.8959 38.1197 57.9128C38.2515 57.9206 38.3804 57.9547 38.4989 58.0129C38.6174 58.0712 38.723 58.1525 38.8097 58.2522C38.8963 58.3518 38.9622 58.4678 39.0034 58.5932C39.0447 58.7186 39.0604 58.851 39.0498 58.9827C39.0098 59.6028 38.9898 60.2328 38.9898 60.8728C38.9898 61.1829 39 61.5227 39.0098 61.8831C39.016 62.1477 38.9177 62.4042 38.7362 62.5969C38.5547 62.7896 38.3046 62.9031 38.04 62.9128H38.0097C37.7499 62.912 37.5005 62.8104 37.314 62.6295C37.1275 62.4486 37.0185 62.2023 37.0098 61.9426ZM86.73 85.573C86.556 85.7097 86.3409 85.7836 86.1197 85.783C85.9773 85.7806 85.837 85.7482 85.708 85.688C85.5789 85.6278 85.464 85.5411 85.3707 85.4336C85.2773 85.326 85.2076 85.2001 85.1662 85.0639C85.1247 84.9276 85.1123 84.7842 85.1299 84.6429C85.1678 84.38 85.3081 84.1428 85.5201 83.9827C85.7337 83.8299 85.9976 83.7645 86.2578 83.7999C86.5181 83.8353 86.7549 83.9689 86.92 84.1732C87.0774 84.3851 87.1457 84.6502 87.1102 84.9118C87.0747 85.1734 86.9383 85.4108 86.73 85.573ZM45.1699 42.9627C43.7833 44.7456 42.6055 46.6816 41.6597 48.7327C41.5789 48.9058 41.4504 49.0524 41.2893 49.1551C41.1282 49.2579 40.9411 49.3125 40.75 49.3127C40.6052 49.3118 40.4621 49.2813 40.3296 49.2229C40.2101 49.1688 40.1026 49.0914 40.0134 48.9952C39.9242 48.899 39.8551 48.786 39.8101 48.6628C39.7195 48.4121 39.7302 48.1359 39.8399 47.8928C40.8533 45.7024 42.1148 43.6355 43.5996 41.7327C43.7662 41.5293 44.0048 41.3982 44.2657 41.3665C44.5266 41.3348 44.7897 41.4051 45 41.5628C45.1042 41.6427 45.1915 41.7426 45.2566 41.8566C45.3217 41.9707 45.3634 42.0966 45.3792 42.227C45.395 42.3574 45.3847 42.4896 45.3487 42.6159C45.3128 42.7422 45.252 42.8601 45.1699 42.9627ZM96.9199 58.6228C96.8496 57.6829 96.7197 56.7127 96.5498 55.7429C96.5264 55.6135 96.5289 55.4808 96.557 55.3523C96.5851 55.2238 96.6383 55.1022 96.7136 54.9944C96.7888 54.8866 96.8847 54.7947 96.9956 54.724C97.1065 54.6534 97.2303 54.6054 97.3599 54.5828C97.6205 54.5411 97.8872 54.6022 98.1036 54.7534C98.3201 54.9045 98.4694 55.1338 98.52 55.3928C98.6997 56.4031 98.8296 57.4426 98.9097 58.4627C98.9207 58.5941 98.9057 58.7264 98.8654 58.852C98.825 58.9776 98.7602 59.0939 98.6747 59.1943C98.5892 59.2947 98.4846 59.3772 98.3671 59.437C98.2495 59.4968 98.1213 59.5327 97.9898 59.5427H97.9199C97.6682 59.543 97.4256 59.4485 97.2403 59.2781C97.055 59.1076 96.9406 58.8737 96.9199 58.6228ZM41.6997 73.0828C41.8098 73.3257 41.8206 73.602 41.73 73.8528C41.6591 74.0446 41.5308 74.2099 41.3626 74.3262C41.1944 74.4424 40.9945 74.5041 40.7901 74.5027C40.5992 74.5012 40.4127 74.4461 40.2517 74.3436C40.0908 74.2411 39.9619 74.0954 39.8799 73.9231C39.7703 73.6835 39.7594 73.4104 39.8496 73.1629C39.9166 72.9758 40.0378 72.8128 40.1978 72.6949C40.3577 72.577 40.5492 72.5095 40.7477 72.5009C40.9463 72.4923 41.1429 72.543 41.3125 72.6467C41.482 72.7503 41.6168 72.9022 41.6997 73.0828V73.0828ZM93.98 43.9426C94.124 44.1643 94.1743 44.434 94.12 44.6927C94.0656 44.9514 93.911 45.178 93.69 45.323C93.5303 45.4296 93.342 45.4852 93.15 45.4827C92.9772 45.4835 92.8072 45.4393 92.6566 45.3545C92.5061 45.2697 92.3802 45.1473 92.2913 44.9991C92.2023 44.851 92.1535 44.6822 92.1495 44.5095C92.1455 44.3367 92.1865 44.1659 92.2685 44.0138C92.3505 43.8617 92.4706 43.7336 92.6171 43.6419C92.7636 43.5503 92.9314 43.4983 93.1041 43.4912C93.2767 43.484 93.4482 43.5218 93.6018 43.601C93.7554 43.6802 93.8858 43.7979 93.9801 43.9427L93.98 43.9426ZM53.0601 88.0227C50.9464 86.8593 48.9733 85.4568 47.1797 83.843C46.9853 83.6642 46.8691 83.4161 46.856 83.1523C46.8429 82.8884 46.9341 82.6301 47.1099 82.4329C47.2919 82.2405 47.5413 82.1258 47.8058 82.1128C48.0704 82.0998 48.3297 82.1895 48.5298 82.363C50.2047 83.8759 52.0506 85.188 54.0298 86.2727C54.0298 86.2741 54.03 86.2754 54.0305 86.2767C54.031 86.2779 54.0318 86.2791 54.0327 86.28C54.0337 86.281 54.0348 86.2818 54.0361 86.2823C54.0373 86.2828 54.0387 86.283 54.0401 86.283C54.1519 86.346 54.2502 86.4306 54.3291 86.5318C54.4081 86.6331 54.4662 86.749 54.5 86.8728C54.5394 86.9983 54.5527 87.1305 54.5389 87.2612C54.5251 87.392 54.4846 87.5186 54.42 87.6331C54.3331 87.7904 54.2057 87.9216 54.051 88.0131C53.8962 88.1045 53.7198 88.1528 53.5401 88.1531C53.3719 88.1488 53.2073 88.1041 53.0601 88.0227ZM67.9097 90.883C67.9016 91.1411 67.7941 91.3861 67.6097 91.5668C67.4252 91.7475 67.1781 91.85 66.9199 91.8528H66.8799C65.8497 91.8128 64.8101 91.7229 63.7901 91.5828C63.5271 91.5451 63.2898 91.4048 63.1299 91.1926C63.0504 91.0883 62.9927 90.9691 62.96 90.842C62.9274 90.7149 62.9206 90.5826 62.94 90.4529C62.9768 90.1921 63.1151 89.9564 63.325 89.7971C63.5348 89.6379 63.799 89.568 64.0601 89.6028C65.0098 89.7327 65.9898 89.8128 66.9498 89.8528C67.0805 89.8573 67.209 89.8875 67.328 89.9418C67.4471 89.996 67.5542 90.0732 67.6434 90.1689C67.7325 90.2645 67.8019 90.3769 67.8476 90.4994C67.8933 90.622 67.9144 90.7523 67.9097 90.883ZM93.5 76.7029C93.3855 76.6374 93.2851 76.55 93.2045 76.4456C93.1239 76.3413 93.0647 76.222 93.0303 76.0947C92.996 75.9674 92.987 75.8346 93.0041 75.7038C93.0212 75.5731 93.064 75.447 93.1299 75.3328C94.257 73.3766 95.1529 71.296 95.7998 69.133C95.8782 68.8815 96.0517 68.6706 96.2834 68.5454C96.5152 68.4201 96.7867 68.3904 97.04 68.4627C97.1669 68.4959 97.2852 68.556 97.3869 68.6388C97.4886 68.7216 97.5715 68.8252 97.6299 68.9426C97.6944 69.0572 97.7348 69.1837 97.7485 69.3145C97.7623 69.4452 97.7492 69.5774 97.7099 69.7029C97.0226 72.0168 96.066 74.242 94.8598 76.3328C94.7736 76.4848 94.6485 76.6111 94.4975 76.699C94.3464 76.7868 94.1747 76.833 94 76.8328C93.8246 76.8361 93.6516 76.7911 93.5 76.7029ZM36.2261 77.8064C35.0771 75.6486 34.1517 73.379 33.4644 71.033C33.3898 70.7785 33.4193 70.5048 33.5465 70.2721C33.6737 70.0395 33.8881 69.8668 34.1426 69.7922C34.3971 69.7176 34.6707 69.7472 34.9034 69.8744C35.1361 70.0016 35.3087 70.216 35.3833 70.4705C36.0326 72.6855 36.9062 74.8284 37.9907 76.866C38.0526 76.9818 38.091 77.1088 38.1038 77.2395C38.1166 77.3702 38.1035 77.5022 38.0652 77.6279C38.027 77.7535 37.9644 77.8704 37.8809 77.9719C37.7975 78.0733 37.6949 78.1573 37.579 78.2191C37.463 78.2809 37.3361 78.3192 37.2053 78.3319C37.0746 78.3446 36.9426 78.3314 36.817 78.2931C36.6914 78.2548 36.5745 78.192 36.4731 78.1085C36.3717 78.025 36.2878 77.9224 36.2261 77.8064ZM37.4365 41.8396C38.7287 39.7653 40.2272 37.8269 41.9092 36.054C42.0918 35.8617 42.3433 35.7498 42.6084 35.7429C42.8735 35.736 43.1305 35.8348 43.3228 36.0174C43.5151 36.2 43.627 36.4515 43.6339 36.7166C43.6407 36.9817 43.542 37.2387 43.3594 37.431C41.7705 39.1062 40.3548 40.9376 39.1338 42.8973C39.0644 43.0087 38.9736 43.1054 38.8668 43.1818C38.76 43.2582 38.6392 43.3128 38.5113 43.3425C38.3834 43.3722 38.2509 43.3764 38.1214 43.3549C37.9918 43.3334 37.8678 43.2865 37.7564 43.2171C37.6449 43.1476 37.5482 43.0569 37.4719 42.9501C37.3955 42.8433 37.3409 42.7225 37.3112 42.5946C37.2815 42.4667 37.2773 42.3342 37.2988 42.2047C37.3203 42.0751 37.3671 41.9511 37.4365 41.8397V41.8396ZM32.9912 61.7473C33.1224 61.74 33.2537 61.7586 33.3776 61.8021C33.5016 61.8456 33.6157 61.913 33.7136 62.0006C33.8114 62.0882 33.8911 62.1943 33.9479 62.3127C34.0048 62.4311 34.0377 62.5595 34.0449 62.6907C34.1353 64.3166 34.3409 65.9341 34.6602 67.531C34.7139 67.7933 34.6631 68.0662 34.5186 68.2916C34.3742 68.5171 34.1475 68.6772 33.8867 68.738C33.816 68.7525 33.7441 68.7598 33.6719 68.76C33.448 68.7638 33.2298 68.6894 33.0549 68.5497C32.8799 68.4099 32.7592 68.2136 32.7134 67.9944C32.7129 67.9895 32.6992 67.9231 32.6982 67.9187C32.3606 66.2304 32.1433 64.5202 32.0479 62.801C32.0406 62.6699 32.0592 62.5386 32.1027 62.4147C32.1462 62.2908 32.2137 62.1766 32.3013 62.0788C32.3889 61.9809 32.4949 61.9013 32.6133 61.8444C32.7317 61.7876 32.8601 61.7546 32.9912 61.7473ZM44.0806 35.2854C43.9049 35.0867 43.8154 34.8264 43.8316 34.5617C43.8478 34.297 43.9684 34.0496 44.167 33.8738C45.4739 32.7179 46.8631 31.6586 48.3238 30.7044C48.5458 30.5603 48.816 30.5101 49.075 30.5649C49.334 30.6196 49.5608 30.7749 49.7055 30.9965C49.8503 31.2182 49.9012 31.4882 49.8473 31.7474C49.7933 32.0065 49.6387 32.2337 49.4175 32.3792C48.0381 33.28 46.7262 34.2802 45.4922 35.3718C45.2935 35.5475 45.0332 35.6371 44.7685 35.6209C44.5038 35.6047 44.2563 35.484 44.0806 35.2854H44.0806ZM79.437 26.7219C81.0917 27.2783 82.7038 27.9539 84.2607 28.7434C84.3783 28.8026 84.483 28.8844 84.5688 28.9841C84.6547 29.0838 84.72 29.1995 84.7611 29.3245C84.8021 29.4496 84.8181 29.5815 84.8081 29.7127C84.7981 29.8439 84.7622 29.9718 84.7027 30.0891C84.6431 30.2065 84.561 30.3109 84.461 30.3964C84.361 30.482 84.245 30.5469 84.1199 30.5875C83.9947 30.6282 83.8628 30.6437 83.7316 30.6333C83.6004 30.6228 83.4726 30.5866 83.3555 30.5266C81.8851 29.7812 80.3627 29.1431 78.8003 28.6174C78.6755 28.5759 78.5601 28.5101 78.4608 28.4239C78.3615 28.3377 78.2801 28.2328 78.2214 28.1151C78.1627 27.9974 78.1278 27.8693 78.1187 27.7381C78.1096 27.6068 78.1264 27.4751 78.1683 27.3504C78.2102 27.2258 78.2763 27.1106 78.3627 27.0115C78.4492 26.9124 78.5544 26.8313 78.6722 26.7729C78.7901 26.7145 78.9183 26.68 79.0495 26.6712C79.1808 26.6625 79.3124 26.6797 79.437 26.7219V26.7219ZM36.4497 48.178C35.9566 49.4014 35.5352 50.6526 35.1875 51.925C35.1296 52.1365 35.004 52.3232 34.8297 52.4563C34.6555 52.5894 34.4424 52.6616 34.2232 52.6619C34.1339 52.6617 34.0451 52.6497 33.959 52.6262C33.7031 52.5562 33.4855 52.3875 33.3541 52.1571C33.2226 51.9268 33.188 51.6536 33.2578 51.3977C33.6265 50.0508 34.0727 48.7263 34.5943 47.4309C34.6933 47.1848 34.8861 46.9882 35.1301 46.8843C35.3741 46.7804 35.6495 46.7776 35.8955 46.8767C36.1416 46.9758 36.3382 47.1685 36.4421 47.4126C36.5461 47.6566 36.5488 47.9319 36.4497 48.178V48.178ZM69.1055 26.8733C68.9738 26.8698 68.8441 26.8403 68.7238 26.7866C68.6036 26.7328 68.4951 26.6558 68.4047 26.5601C68.3143 26.4643 68.2437 26.3516 68.197 26.2284C68.1502 26.1052 68.1283 25.9741 68.1324 25.8424C68.1365 25.7107 68.1666 25.5812 68.2209 25.4612C68.2753 25.3412 68.3528 25.2331 68.449 25.1431C68.5452 25.0532 68.6583 24.9831 68.7817 24.937C68.9051 24.8908 69.0363 24.8695 69.168 24.8743C71.6124 24.9517 74.0424 25.2796 76.42 25.8528C76.6778 25.915 76.9004 26.077 77.0388 26.3033C77.1771 26.5296 77.2199 26.8015 77.1578 27.0594C77.0956 27.3172 76.9336 27.5398 76.7073 27.6781C76.481 27.8165 76.2091 27.8593 75.9512 27.7972C73.7069 27.2561 71.413 26.9466 69.1055 26.8733ZM67.7993 95.8836C67.7907 96.1428 67.6816 96.3885 67.4953 96.5689C67.3089 96.7493 67.0597 96.8502 66.8003 96.8504L66.7666 96.8499C64.3221 96.7676 61.8925 96.4353 59.5156 95.8582C59.2579 95.7955 59.0357 95.633 58.8978 95.4065C58.7599 95.1799 58.7176 94.9079 58.7803 94.6502C58.843 94.3924 59.0055 94.1702 59.232 94.0323C59.4585 93.8944 59.7306 93.8521 59.9883 93.9148C62.2319 94.4597 64.5255 94.7734 66.833 94.8508C66.9643 94.8552 67.0934 94.8853 67.213 94.9396C67.3326 94.9939 67.4403 95.0711 67.5301 95.167C67.6198 95.2629 67.6898 95.3756 67.736 95.4985C67.7822 95.6215 67.8037 95.7523 67.7993 95.8836ZM64.0366 26.0716C64.0554 26.2015 64.0483 26.3339 64.0159 26.4612C63.9835 26.5884 63.9263 26.708 63.8476 26.8132C63.7689 26.9183 63.6703 27.007 63.5574 27.074C63.4445 27.141 63.3194 27.1852 63.1895 27.2039C62.5713 27.2932 61.952 27.3997 61.3316 27.5232C60.6504 27.6599 59.9777 27.8157 59.3135 27.9905C59.0571 28.0575 58.7847 28.0199 58.5559 27.8862C58.3272 27.7525 58.1609 27.5334 58.0935 27.2772C58.0261 27.0209 58.0631 26.7484 58.1965 26.5194C58.3298 26.2905 58.5486 26.1238 58.8047 26.0559C59.5064 25.8714 60.2179 25.7068 60.9395 25.5623C61.5952 25.4309 62.2502 25.3183 62.9043 25.2244C63.1667 25.1875 63.433 25.2558 63.6451 25.4145C63.8573 25.5732 63.998 25.8094 64.0366 26.0715V26.0716ZM42.4185 86.1986C41.4358 85.2077 40.5114 84.1607 39.6499 83.0628C39.4873 82.8541 39.4141 82.5894 39.4462 82.3268C39.4784 82.0642 39.6133 81.825 39.8215 81.6617C40.0296 81.4984 40.294 81.4242 40.5568 81.4555C40.8195 81.4867 41.0591 81.6208 41.2232 81.8284C42.0368 82.8652 42.91 83.8539 43.8384 84.7894C44.0243 84.9779 44.1279 85.2324 44.1265 85.4971C44.125 85.7619 44.0187 86.0152 43.8308 86.2017C43.6429 86.3882 43.3887 86.4926 43.124 86.492C42.8593 86.4914 42.6055 86.3859 42.4185 86.1986V86.1986ZM93.5352 35.4813C94.5198 36.4701 95.4462 37.5153 96.3096 38.6116C96.3917 38.7147 96.4527 38.833 96.489 38.9597C96.5252 39.0865 96.5361 39.2191 96.5209 39.3501C96.5057 39.481 96.4648 39.6076 96.4005 39.7227C96.3362 39.8378 96.2498 39.939 96.1462 40.0205C96.0427 40.1021 95.924 40.1623 95.7971 40.1979C95.6701 40.2334 95.5374 40.2435 95.4066 40.2275C95.2757 40.2116 95.1493 40.1699 95.0346 40.1049C94.92 40.04 94.8192 39.953 94.7383 39.8489C93.9228 38.8136 93.0479 37.8264 92.1182 36.8924C91.9318 36.7043 91.8276 36.45 91.8285 36.1853C91.8293 35.9205 91.9352 35.6669 92.1228 35.48C92.3104 35.2932 92.5645 35.1884 92.8292 35.1886C93.094 35.1889 93.3479 35.2941 93.5352 35.4813ZM102.025 69.1614C102.281 69.2318 102.498 69.4009 102.63 69.6314C102.761 69.862 102.795 70.1352 102.725 70.3909C102.354 71.7373 101.905 73.061 101.38 74.3553C101.281 74.6011 101.088 74.7972 100.843 74.9006C100.599 75.004 100.324 75.0061 100.078 74.9066C99.8323 74.807 99.6362 74.6138 99.5328 74.3696C99.4294 74.1254 99.4273 73.8501 99.5269 73.6043C100.022 72.382 100.446 71.132 100.796 69.8606C100.866 69.6049 101.035 69.3875 101.266 69.2564C101.496 69.1253 101.77 69.0911 102.025 69.1614V69.1614ZM92.5977 84.3401C94.1899 82.6681 95.6089 80.8392 96.833 78.8816C96.9737 78.6566 97.1979 78.4968 97.4564 78.4372C97.7149 78.3776 97.9865 78.4231 98.2114 78.5637C98.4364 78.7044 98.5963 78.9286 98.6559 79.1871C98.7155 79.4456 98.67 79.7172 98.5293 79.9421C97.2333 82.0142 95.7312 83.95 94.0459 85.72C93.9554 85.8156 93.847 85.8924 93.7268 85.9461C93.6065 85.9997 93.4769 86.0291 93.3453 86.0325C93.2137 86.0359 93.0827 86.0133 92.9598 85.966C92.837 85.9187 92.7247 85.8476 92.6294 85.7568C92.534 85.666 92.4576 85.5572 92.4044 85.4368C92.3512 85.3164 92.3223 85.1866 92.3194 85.055C92.3164 84.9234 92.3395 84.7925 92.3872 84.6698C92.435 84.5471 92.5065 84.4351 92.5977 84.3401ZM103.956 58.99C103.963 59.1212 103.944 59.2524 103.9 59.3762C103.857 59.5 103.789 59.6141 103.701 59.7117C103.613 59.8094 103.507 59.8888 103.389 59.9454C103.27 60.0021 103.142 60.0348 103.011 60.0418C102.993 60.0428 102.975 60.0433 102.957 60.0433C102.701 60.0431 102.455 59.9448 102.269 59.7687C102.083 59.5926 101.973 59.352 101.959 59.0965C101.87 57.45 101.663 55.812 101.34 54.1951L101.314 54.0706C101.262 53.8106 101.316 53.5405 101.463 53.3198C101.61 53.0991 101.839 52.9459 102.099 52.8938C102.359 52.8418 102.629 52.8952 102.849 53.0422C103.07 53.1893 103.223 53.418 103.275 53.678L103.299 53.7918C103.642 55.5066 103.862 57.2438 103.956 58.99ZM77.8467 94.4666C77.88 94.5936 77.8879 94.7259 77.8701 94.856C77.8522 94.9861 77.8088 95.1114 77.7425 95.2248C77.6761 95.3381 77.5881 95.4372 77.4834 95.5165C77.3787 95.5958 77.2594 95.6536 77.1323 95.6868C76.4512 95.865 75.7604 96.024 75.0601 96.1638C74.3833 96.2996 73.707 96.4153 73.0312 96.511C72.9011 96.53 72.7684 96.5231 72.6409 96.4908C72.5133 96.4584 72.3934 96.4012 72.2881 96.3224C72.1827 96.2436 72.0939 96.1448 72.0268 96.0316C71.9597 95.9184 71.9156 95.7931 71.897 95.6628C71.8785 95.5326 71.8858 95.3999 71.9186 95.2725C71.9514 95.1451 72.009 95.0254 72.0882 94.9203C72.1673 94.8152 72.2664 94.7267 72.3798 94.66C72.4932 94.5933 72.6187 94.5496 72.749 94.5315C73.3877 94.4402 74.0273 94.3306 74.668 94.2029C75.3301 94.0706 75.9829 93.9203 76.6265 93.7522C76.7535 93.7189 76.8859 93.7109 77.016 93.7288C77.1461 93.7467 77.2714 93.79 77.3847 93.8564C77.498 93.9227 77.5972 94.0108 77.6764 94.1155C77.7557 94.2202 77.8136 94.3395 77.8467 94.4666ZM91.7837 87.8963C90.4745 89.0495 89.0831 90.106 87.6206 91.0574C87.3983 91.2016 87.1278 91.2516 86.8686 91.1964C86.6093 91.1413 86.3826 90.9855 86.2382 90.7633C86.0938 90.5411 86.0435 90.2707 86.0983 90.0114C86.1532 89.7522 86.3087 89.5253 86.5308 89.3806C87.9116 88.4821 89.2253 87.4843 90.4614 86.3953C90.56 86.3084 90.6747 86.2419 90.799 86.1994C90.9232 86.1569 91.0547 86.1393 91.1858 86.1476C91.3168 86.1559 91.445 86.1899 91.5629 86.2478C91.6809 86.3056 91.7862 86.3861 91.8731 86.4846C91.9599 86.5832 92.0264 86.6979 92.0689 86.8222C92.1114 86.9464 92.129 87.0779 92.1207 87.209C92.1124 87.34 92.0784 87.4682 92.0206 87.5861C91.9627 87.7041 91.8823 87.8095 91.7837 87.8963V87.8963ZM56.5005 94.9837C54.8472 94.4242 53.2366 93.7458 51.6812 92.9539C51.4448 92.8336 51.2659 92.6243 51.1839 92.3721C51.1019 92.1199 51.1233 91.8455 51.2437 91.6091C51.364 91.3728 51.5732 91.1939 51.8254 91.1119C52.0776 91.0298 52.352 91.0513 52.5884 91.1716C54.0577 91.9197 55.5793 92.5606 57.1411 93.0891C57.2667 93.1302 57.3828 93.1958 57.4829 93.2821C57.5829 93.3684 57.6649 93.4737 57.724 93.5918C57.7832 93.71 57.8183 93.8387 57.8274 93.9705C57.8365 94.1023 57.8194 94.2346 57.7771 94.3597C57.7348 94.4849 57.6681 94.6004 57.5809 94.6997C57.4936 94.7989 57.3876 94.8799 57.2689 94.9379C57.1502 94.9959 57.0212 95.0298 56.8893 95.0377C56.7574 95.0455 56.6252 95.0272 56.5005 94.9836V94.9837ZM97.98 44.8054C97.9177 44.6896 97.8789 44.5626 97.8657 44.4318C97.8526 44.3009 97.8654 44.1687 97.9034 44.0428C97.9414 43.9169 98.0038 43.7997 98.0872 43.698C98.1705 43.5963 98.2731 43.512 98.3891 43.4499C98.5051 43.3879 98.6321 43.3493 98.763 43.3365C98.8939 43.3236 99.0261 43.3367 99.1519 43.375C99.2777 43.4133 99.3948 43.476 99.4963 43.5596C99.5978 43.6432 99.6819 43.746 99.7437 43.8621C100.896 46.0176 101.826 48.2853 102.518 50.6296C102.593 50.884 102.564 51.1577 102.437 51.3907C102.31 51.6237 102.096 51.7967 101.842 51.8718C101.716 51.909 101.584 51.9211 101.453 51.9072C101.323 51.8934 101.196 51.854 101.081 51.7912C100.848 51.6645 100.675 51.4504 100.6 51.1961C99.946 48.9823 99.0683 46.841 97.98 44.8054ZM28.69 50.2327C28.5609 50.0012 28.5284 49.7282 28.5997 49.4729C29.2728 47.177 30.1394 44.9423 31.19 42.7927C31.311 42.5581 31.5179 42.3793 31.7675 42.2936C32.0172 42.2079 32.2903 42.2219 32.5299 42.3327C32.7678 42.4503 32.9497 42.6571 33.0359 42.9082C33.122 43.1592 33.1055 43.4341 32.9899 43.673C31.9826 45.7157 31.1593 47.8441 30.5299 50.0329C30.4659 50.2405 30.3374 50.4223 30.1629 50.5517C29.9885 50.6812 29.7773 50.7516 29.5601 50.7526C29.4689 50.7492 29.3784 50.7358 29.2901 50.7126C29.0355 50.6364 28.8204 50.4643 28.69 50.2327H28.69ZM80.52 21.8128C80.7476 21.8843 80.942 22.035 81.068 22.2375C81.194 22.44 81.2434 22.681 81.2071 22.9168C81.1708 23.1525 81.0512 23.3675 80.8701 23.5227C80.689 23.6779 80.4583 23.7632 80.2197 23.763C80.115 23.765 80.0105 23.7515 79.9097 23.723C79.6588 23.6377 79.4509 23.4584 79.3296 23.223C79.2684 23.107 79.2315 22.9797 79.2213 22.849C79.211 22.7182 79.2276 22.5868 79.27 22.4627C79.3504 22.2113 79.527 22.002 79.7611 21.8802C79.9953 21.7585 80.2681 21.7342 80.52 21.8128ZM35.81 86.2728C35.7278 86.1703 35.6669 86.0524 35.6308 85.9261C35.5948 85.7997 35.5844 85.6675 35.6002 85.537C35.6161 85.4066 35.6578 85.2807 35.723 85.1666C35.7882 85.0525 35.8756 84.9527 35.9799 84.8729C36.1897 84.7161 36.4515 84.6454 36.7117 84.6751C36.9719 84.7049 37.2109 84.8329 37.3798 85.033C38.7903 86.8214 40.3565 88.4812 42.06 89.993C42.1579 90.0803 42.2376 90.1861 42.2946 90.3042C42.3516 90.4223 42.3847 90.5506 42.3921 90.6815C42.3995 90.8125 42.381 90.9436 42.3377 91.0674C42.2944 91.1912 42.2271 91.3053 42.1397 91.403C42.0467 91.5106 41.9315 91.5968 41.802 91.6554C41.6725 91.7141 41.5318 91.7439 41.3897 91.7429C41.1467 91.7423 40.9123 91.6534 40.73 91.4929C38.9411 89.8994 37.2949 88.1527 35.8101 86.2727L35.81 86.2728ZM49.6099 96.403C49.7279 96.1656 49.9346 95.9842 50.1854 95.898C50.4361 95.8119 50.7107 95.8279 50.9497 95.9426C51.8198 96.363 52.7197 96.7629 53.6196 97.1228C53.836 97.2087 54.0156 97.3673 54.1276 97.5714C54.2395 97.7754 54.2768 98.0121 54.2331 98.2407C54.1893 98.4693 54.0672 98.6755 53.8877 98.8238C53.7083 98.9721 53.4828 99.0531 53.25 99.053C53.1236 99.05 52.9986 99.0262 52.8799 98.9827C51.9297 98.6028 50.98 98.1829 50.0698 97.7327C49.8334 97.6164 49.6524 97.4115 49.5662 97.1625C49.4801 96.9135 49.4958 96.6405 49.6099 96.403ZM47.44 26.5227C47.3107 26.2919 47.278 26.0192 47.3492 25.7644C47.4204 25.5095 47.5896 25.2933 47.8198 25.1629C48.7197 24.6629 49.6397 24.1829 50.5498 23.7527C50.7909 23.6477 51.063 23.6389 51.3103 23.7282C51.5577 23.8174 51.7614 23.998 51.8799 24.2327C51.9365 24.3514 51.969 24.4802 51.9755 24.6115C51.982 24.7429 51.9623 24.8743 51.9177 24.998C51.873 25.1217 51.8043 25.2353 51.7154 25.3323C51.6265 25.4292 51.5193 25.5076 51.3999 25.5628C50.5401 25.9729 49.6699 26.4231 48.7998 26.9031C48.6514 26.99 48.4821 27.0349 48.3101 27.033C48.1326 27.0336 47.9583 26.9865 47.8053 26.8968C47.6522 26.807 47.526 26.6778 47.44 26.5227ZM29.75 75.6428V75.6228C29.7011 75.5016 29.6777 75.3716 29.6811 75.2409C29.6846 75.1102 29.7148 74.9816 29.77 74.863C29.8218 74.7425 29.8971 74.6336 29.9915 74.5425C30.0859 74.4515 30.1975 74.3802 30.3198 74.3328C30.5696 74.2458 30.8432 74.2574 31.0847 74.3651C31.3262 74.4729 31.5176 74.6688 31.6196 74.9129C31.7123 75.1609 31.7035 75.4354 31.5949 75.677C31.4864 75.9185 31.287 76.1075 31.04 76.2029C30.9249 76.2471 30.803 76.2708 30.6797 76.2727C30.4806 76.2682 30.2869 76.2064 30.1221 76.0947C29.9572 75.983 29.828 75.8261 29.75 75.6428ZM60.6299 20.823C60.7858 20.608 61.0185 20.4611 61.2798 20.4129C63.5761 20.0263 65.9015 19.8389 68.23 19.8528H68.4297C68.6945 19.8568 68.947 19.9651 69.1324 20.1542C69.3177 20.3433 69.421 20.598 69.4197 20.8628C69.4184 21.1276 69.3127 21.3812 69.1255 21.5685C68.9383 21.7557 68.6847 21.8616 68.4199 21.863C68.2798 21.8528 68.1597 21.8528 68.0401 21.8528C65.8853 21.8517 63.7343 22.0323 61.6099 22.3928C61.5569 22.4013 61.5033 22.4048 61.4497 22.403C61.2117 22.4038 60.9812 22.3196 60.7998 22.1655C60.6183 22.0115 60.4978 21.7977 60.46 21.5627C60.42 21.3035 60.4808 21.0388 60.6299 20.823ZM38.2197 34.133C38.1231 34.0442 38.0451 33.937 37.9902 33.8178C37.9354 33.6985 37.9047 33.5696 37.9001 33.4384C37.8955 33.3072 37.9169 33.1764 37.9633 33.0536C38.0096 32.9307 38.0798 32.8183 38.1699 32.7229C38.3558 32.5353 38.6062 32.4258 38.87 32.4165C39.1339 32.4072 39.3913 32.499 39.5899 32.6731C39.7776 32.859 39.8883 33.1089 39.8999 33.3728C39.9055 33.6338 39.8126 33.8872 39.6397 34.0828C39.6299 34.0828 39.6299 34.0828 39.6299 34.093C39.5358 34.1918 39.4226 34.2703 39.297 34.3236C39.1714 34.377 39.0363 34.404 38.8999 34.4031C38.647 34.4035 38.4035 34.3069 38.2197 34.133ZM27.0899 63.673C27.0298 62.7028 26.9898 61.7429 26.9898 60.8229V60.5929C26.9926 60.3295 27.0992 60.0778 27.2864 59.8925C27.4736 59.7071 27.7263 59.603 27.9898 59.6027C28.1214 59.6014 28.2521 59.6264 28.374 59.6762C28.4959 59.7259 28.6067 59.7996 28.6998 59.8927C28.7929 59.9858 28.8665 60.0966 28.9163 60.2185C28.9661 60.3404 28.9911 60.471 28.9898 60.6027V60.823C28.9898 61.7327 29.0298 62.6429 29.0899 63.533C29.107 63.7969 29.0187 64.0569 28.8442 64.2556C28.6698 64.4544 28.4236 64.5758 28.1597 64.593C28.1373 64.6011 28.1136 64.6044 28.0899 64.6028C27.8371 64.6008 27.5943 64.5043 27.4092 64.3322C27.2242 64.1601 27.1102 63.925 27.0899 63.6731L27.0899 63.673ZM103.7 81.0227C103.63 81.1428 103.57 81.2527 103.51 81.363C103.421 81.5154 103.294 81.6419 103.142 81.7296C102.989 81.8174 102.816 81.8634 102.64 81.863C102.465 81.8601 102.294 81.8154 102.14 81.7327C101.913 81.5993 101.747 81.3823 101.678 81.1281C101.608 80.8739 101.642 80.6028 101.77 80.3728V80.363L101.83 80.2727C101.87 80.2029 101.91 80.1228 101.95 80.053C101.95 80.0516 101.95 80.0503 101.95 80.049C101.951 80.0478 101.952 80.0466 101.953 80.0457C101.954 80.0447 101.955 80.0439 101.956 80.0434C101.957 80.0429 101.959 80.0427 101.96 80.0427C102.096 79.818 102.312 79.6536 102.565 79.583C102.817 79.5124 103.087 79.5409 103.32 79.6629C103.55 79.7934 103.719 80.0097 103.79 80.2645C103.861 80.5192 103.829 80.7918 103.7 81.0227ZM101.6 37.3528C102.972 39.3126 104.167 41.3909 105.17 43.5628C105.281 43.803 105.293 44.0775 105.203 44.3265C105.113 44.5755 104.929 44.779 104.69 44.8929C104.558 44.9512 104.415 44.9818 104.27 44.9827C104.079 44.9825 103.892 44.9279 103.731 44.8253C103.569 44.7226 103.441 44.5762 103.36 44.4031C102.4 42.3381 101.263 40.3605 99.96 38.4929C99.8097 38.2738 99.749 38.0054 99.7901 37.7429C99.8397 37.4823 99.9907 37.252 100.21 37.1028C100.429 36.9565 100.696 36.9009 100.955 36.9475C101.214 36.9941 101.445 37.1394 101.6 37.3528ZM95.9199 89.533C96.0116 89.6282 96.0828 89.7412 96.1293 89.865C96.1757 89.9887 96.1963 90.1207 96.1899 90.2527C96.1866 90.3835 96.1564 90.5122 96.1013 90.6309C96.0462 90.7495 95.9674 90.8557 95.8696 90.9426C95.1299 91.6331 94.3496 92.3128 93.54 92.9529C93.3633 93.0927 93.1453 93.1702 92.9199 93.1731C92.7114 93.1737 92.5078 93.1094 92.3375 92.9891C92.1671 92.8688 92.0384 92.6985 91.9692 92.5018C91.9 92.3051 91.8937 92.0917 91.9512 91.8912C92.0086 91.6908 92.1271 91.5132 92.29 91.383C93.06 90.7727 93.7998 90.133 94.5 89.4929L94.5098 89.4827C94.7055 89.3065 94.9619 89.2133 95.225 89.2227C95.4881 89.2321 95.7373 89.3433 95.9199 89.533ZM64.8198 101.743C64.689 101.734 64.5612 101.699 64.444 101.64C64.3268 101.581 64.2224 101.499 64.1368 101.4C64.0513 101.3 63.9863 101.185 63.9456 101.06C63.905 100.935 63.8894 100.804 63.8999 100.673C63.9232 100.411 64.0481 100.168 64.2479 99.9956C64.4477 99.8237 64.7067 99.7366 64.9697 99.7527H64.98C65.2371 99.7758 65.4753 99.8971 65.6451 100.091C65.8149 100.286 65.9032 100.538 65.8916 100.796C65.8799 101.054 65.7692 101.297 65.5826 101.475C65.396 101.654 65.1478 101.753 64.8897 101.753C64.866 101.754 64.8422 101.751 64.8198 101.743V101.743ZM105.9 70.1028C106.12 69.1829 106.32 68.2229 106.48 67.2527V67.2429C106.525 66.9823 106.671 66.75 106.886 66.5965C107.102 66.443 107.369 66.3807 107.63 66.4231C107.76 66.4404 107.885 66.4849 107.997 66.5538C108.109 66.6227 108.206 66.7144 108.28 66.823C108.357 66.9282 108.413 67.0478 108.444 67.1748C108.475 67.3018 108.481 67.4337 108.46 67.5628C108.29 68.5828 108.08 69.593 107.84 70.5828C107.808 70.7101 107.752 70.8301 107.674 70.9357C107.596 71.0413 107.498 71.1305 107.386 71.1983C107.274 71.2661 107.149 71.3111 107.019 71.3307C106.89 71.3504 106.757 71.3442 106.63 71.3127C106.503 71.2812 106.383 71.2249 106.277 71.147C106.171 71.0692 106.082 70.9713 106.014 70.8589C105.947 70.7466 105.902 70.622 105.882 70.4922C105.862 70.3625 105.868 70.2301 105.9 70.1028V70.1028ZM106.64 55.593C106.604 55.3291 106.675 55.0617 106.836 54.8497C106.997 54.6378 107.236 54.4985 107.5 54.4627C107.763 54.4268 108.029 54.4968 108.24 54.6572C108.451 54.8175 108.589 55.0551 108.625 55.3176C108.661 55.5802 108.591 55.8462 108.431 56.0572C108.27 56.2682 108.033 56.4068 107.77 56.4426C107.724 56.4511 107.677 56.4546 107.63 56.4529C107.389 56.4509 107.158 56.3633 106.976 56.2056C106.795 56.048 106.675 55.8308 106.64 55.593ZM83.8599 98.6731C81.6539 99.5955 79.3721 100.325 77.04 100.853C76.9678 100.869 76.8938 100.876 76.8198 100.873C76.5937 100.873 76.374 100.798 76.1962 100.658C76.0184 100.518 75.8928 100.323 75.8398 100.103C75.7817 99.8423 75.8283 99.5694 75.9697 99.343C76.0398 99.2312 76.1317 99.1346 76.2399 99.059C76.3481 98.9835 76.4704 98.9304 76.5996 98.9031C78.8188 98.3978 80.9903 97.7019 83.0899 96.823C83.3356 96.7248 83.6099 96.7263 83.8545 96.8272C84.0991 96.928 84.2948 97.1202 84.3999 97.363C84.5012 97.6085 84.5013 97.884 84.4001 98.1295C84.2989 98.375 84.1047 98.5704 83.8599 98.6731ZM91.5 27.2629C92.3399 27.8528 93.1699 28.4729 93.9497 29.113C94.0524 29.1942 94.1373 29.2955 94.1993 29.4107C94.2613 29.5259 94.299 29.6526 94.3101 29.783C94.3255 29.9219 94.3114 30.0626 94.2686 30.1957C94.2259 30.3288 94.1554 30.4513 94.0618 30.5552C93.9683 30.6591 93.8538 30.7421 93.7259 30.7986C93.5981 30.8551 93.4597 30.8839 93.3198 30.8831C93.0902 30.8882 92.8664 30.81 92.69 30.6629C91.94 30.053 91.15 29.4627 90.3496 28.9031C90.1341 28.7504 89.9871 28.5191 89.9404 28.2591C89.8936 27.9991 89.9508 27.7312 90.0996 27.5129C90.2559 27.299 90.4888 27.1535 90.7497 27.107C91.0105 27.0604 91.2793 27.1163 91.5 27.2629ZM56.3101 105.063C56.2065 104.895 56.1555 104.699 56.1637 104.502C56.1718 104.305 56.2388 104.114 56.3559 103.955C56.473 103.796 56.6349 103.676 56.821 103.609C57.007 103.543 57.2086 103.534 57.3999 103.583C59.7217 104.154 62.0861 104.535 64.4697 104.723C64.6006 104.733 64.7282 104.77 64.8449 104.83C64.9617 104.89 65.0654 104.973 65.15 105.073C65.2347 105.174 65.2986 105.29 65.338 105.415C65.3775 105.54 65.3917 105.672 65.3799 105.803C65.3596 106.052 65.2468 106.285 65.0635 106.455C64.8802 106.626 64.6398 106.721 64.3897 106.723C64.3627 106.725 64.3356 106.722 64.3101 106.713C61.8188 106.515 59.3474 106.117 56.9199 105.523C56.6642 105.455 56.4451 105.29 56.3101 105.063ZM44.5298 22.4529C44.4616 22.3398 44.4167 22.2142 44.3979 22.0834C44.379 21.9527 44.3866 21.8195 44.4202 21.6918C44.4537 21.564 44.5126 21.4443 44.5932 21.3397C44.6738 21.2351 44.7747 21.1477 44.8897 21.0828C45.0609 20.9853 45.257 20.9403 45.4535 20.9534C45.6501 20.9666 45.8385 21.0372 45.9952 21.1566C46.1519 21.276 46.27 21.4389 46.3349 21.6249C46.3997 21.8109 46.4084 22.0119 46.3599 22.2029C46.2884 22.4596 46.1197 22.6783 45.8897 22.8127H45.8799C45.7314 22.9 45.5619 22.9449 45.3897 22.9426C45.2162 22.9426 45.0456 22.8975 44.8949 22.8116C44.7441 22.7258 44.6183 22.6021 44.5298 22.4529ZM91.3897 99.323C91.4576 99.436 91.5015 99.5618 91.5187 99.6925C91.536 99.8232 91.5261 99.9561 91.4898 100.083C91.4582 100.21 91.4012 100.33 91.3221 100.435C91.2431 100.54 91.1436 100.627 91.0298 100.693C90.8783 100.781 90.7052 100.826 90.5298 100.823C90.3763 100.826 90.2243 100.792 90.0859 100.726C89.9475 100.659 89.8265 100.562 89.7324 100.44C89.6383 100.319 89.5737 100.178 89.5438 100.027C89.5139 99.8765 89.5195 99.7211 89.56 99.573C89.594 99.4453 89.653 99.3255 89.7336 99.2207C89.8143 99.1159 89.9149 99.0282 90.0298 98.9627C90.259 98.835 90.5288 98.8013 90.7824 98.8685C91.036 98.9357 91.2537 99.0986 91.3897 99.323ZM46.0498 99.0027C46.2417 99.1124 46.3919 99.2824 46.477 99.4864C46.5621 99.6904 46.5773 99.9168 46.5202 100.13C46.4631 100.344 46.337 100.533 46.1614 100.667C45.9859 100.801 45.7708 100.874 45.5498 100.873C45.3752 100.87 45.2037 100.826 45.0498 100.743C44.82 100.608 44.6514 100.39 44.5796 100.133C44.515 99.875 44.5547 99.6019 44.69 99.3728C44.8265 99.1492 45.0435 98.9863 45.2963 98.9174C45.5491 98.8486 45.8187 98.8791 46.0498 99.0027ZM89.5 21.3128C89.6367 21.0866 89.8554 20.9219 90.1106 20.8529C90.3657 20.784 90.6376 20.8161 90.8696 20.9426C91.0585 21.0533 91.2057 21.2229 91.2888 21.4254C91.3718 21.628 91.386 21.8521 91.3292 22.0635C91.2724 22.2749 91.1477 22.4617 90.9743 22.5953C90.801 22.7289 90.5885 22.8019 90.3696 22.803C90.1942 22.8061 90.0213 22.7612 89.8696 22.6731C89.6407 22.5413 89.4732 22.3242 89.4039 22.0693C89.3346 21.8143 89.3692 21.5423 89.5 21.3128ZM79.8999 104.283C79.9614 104.542 79.9182 104.815 79.7798 105.043C79.7152 105.156 79.6275 105.255 79.5225 105.332C79.4175 105.41 79.2974 105.465 79.1699 105.493C78.1499 105.753 77.0996 105.973 76.0298 106.163C75.9738 106.174 75.917 106.181 75.8599 106.183C75.6091 106.183 75.3673 106.09 75.182 105.921C74.9967 105.752 74.8814 105.52 74.8587 105.27C74.8361 105.02 74.9079 104.771 75.0598 104.572C75.2118 104.372 75.4329 104.237 75.6797 104.193C76.6899 104.013 77.6997 103.803 78.6899 103.553C78.9469 103.495 79.2163 103.539 79.4418 103.675C79.6673 103.811 79.8315 104.029 79.8999 104.283ZM56.0098 17.4627C55.9492 17.2078 55.9885 16.9394 56.1196 16.7127C56.1872 16.5985 56.2768 16.4991 56.3833 16.4201C56.4898 16.3411 56.611 16.2842 56.7398 16.2527C57.75 15.9929 58.7998 15.7727 59.8696 15.5827C59.9991 15.5589 60.132 15.561 60.2606 15.5889C60.3893 15.6168 60.5111 15.67 60.619 15.7453C60.7269 15.8207 60.8188 15.9167 60.8893 16.0279C60.9598 16.139 61.0076 16.263 61.0298 16.3928C61.0538 16.5206 61.052 16.652 61.0245 16.7791C60.997 16.9062 60.9444 17.0266 60.8696 17.133C60.7968 17.2415 60.7024 17.3339 60.5924 17.4044C60.4824 17.4748 60.359 17.5219 60.23 17.5427C59.2197 17.7229 58.21 17.9426 57.23 18.1926C57.1481 18.2125 57.0642 18.2227 56.98 18.2229C56.7564 18.2236 56.539 18.149 56.363 18.0111C56.187 17.8732 56.0625 17.68 56.0098 17.4627ZM114 60.6731C114.002 60.7066 113.998 60.7402 113.99 60.7727C113.999 60.7984 114.002 60.8257 114 60.8528V60.863C114 61.1283 113.895 61.3826 113.707 61.5701C113.52 61.7577 113.265 61.863 113 61.863C112.735 61.863 112.48 61.7577 112.293 61.5701C112.105 61.3826 112 61.1283 112 60.863V60.6628C111.999 60.5341 112.024 60.4065 112.074 60.2879C112.124 60.1692 112.197 60.062 112.29 59.9729C112.429 59.8311 112.607 59.7339 112.801 59.6937C112.995 59.6535 113.197 59.6722 113.381 59.7474C113.564 59.8226 113.721 59.9508 113.832 60.1157C113.942 60.2806 114.001 60.4747 114 60.6731ZM70.7598 16.653C70.6307 16.5033 70.5489 16.3187 70.5246 16.1225C70.5004 15.9263 70.5349 15.7273 70.6237 15.5507C70.7126 15.3741 70.8518 15.2277 71.0237 15.1302C71.1957 15.0327 71.3927 14.9883 71.5899 15.0027C74.0814 15.1934 76.553 15.5881 78.98 16.1829C79.1083 16.2124 79.2292 16.2675 79.3357 16.3448C79.4422 16.4222 79.5319 16.5202 79.5996 16.6331C79.669 16.7454 79.7145 16.8708 79.7335 17.0015C79.7525 17.1322 79.7445 17.2654 79.71 17.3928C79.6791 17.5205 79.6231 17.6409 79.5454 17.7468C79.4677 17.8528 79.3697 17.9423 79.2572 18.0102C79.1447 18.078 79.0199 18.123 78.8899 18.1423C78.7599 18.1616 78.6274 18.155 78.5 18.1228C76.1802 17.5601 73.8195 17.1823 71.4399 16.993C71.3096 16.9847 71.1822 16.9503 71.0654 16.8919C70.9486 16.8335 70.8447 16.7523 70.7598 16.653ZM32.9297 89.0828C33.1345 88.9161 33.396 88.8355 33.6591 88.8579C33.9221 88.8803 34.1662 89.004 34.3399 89.2029C34.9898 89.9729 35.6797 90.7429 36.3999 91.4729C36.5833 91.6657 36.683 91.9231 36.6773 92.1891C36.6717 92.4551 36.5611 92.708 36.3697 92.8928C36.1859 93.0739 35.9377 93.1747 35.6797 93.1731C35.5458 93.1735 35.4131 93.1472 35.2895 93.0956C35.1659 93.044 35.0539 92.9683 34.96 92.8728C34.23 92.113 33.5 91.3127 32.8101 90.4827C32.6403 90.2811 32.5576 90.0205 32.58 89.7579C32.6025 89.4954 32.7282 89.2525 32.9297 89.0828L32.9297 89.0828ZM107.71 41.8728C107.594 41.636 107.576 41.363 107.66 41.113C107.703 40.9876 107.772 40.8724 107.861 40.7743C107.95 40.6762 108.059 40.5974 108.18 40.5427C108.419 40.4353 108.691 40.4242 108.939 40.5117C109.186 40.5993 109.391 40.7787 109.51 41.0129C110.583 43.2686 111.476 45.6059 112.18 48.0027C112.251 48.258 112.219 48.5314 112.09 48.7629C112.03 48.8796 111.947 48.9825 111.846 49.0651C111.744 49.1478 111.626 49.2083 111.5 49.2429C111.409 49.2701 111.315 49.2836 111.22 49.2829C111.003 49.283 110.793 49.2128 110.62 49.0829C110.447 48.9531 110.32 48.7705 110.26 48.5627C109.593 46.2674 108.74 44.03 107.71 41.8728ZM111.55 72.303C111.676 72.3372 111.795 72.3965 111.898 72.4774C112.001 72.5583 112.087 72.6591 112.151 72.7738C112.214 72.8886 112.254 73.0149 112.267 73.1453C112.281 73.2758 112.268 73.4076 112.23 73.533C111.94 74.5628 111.61 75.5828 111.24 76.5828C111.171 76.7767 111.043 76.9444 110.875 77.0626C110.707 77.1809 110.506 77.2439 110.3 77.2429C110.184 77.2425 110.069 77.2222 109.96 77.1829C109.837 77.1398 109.724 77.0725 109.628 76.9849C109.532 76.8973 109.454 76.7913 109.4 76.6731C109.342 76.5541 109.308 76.4245 109.301 76.2922C109.295 76.1599 109.314 76.0275 109.36 75.9031C109.71 74.9529 110.03 73.9729 110.31 72.9827C110.389 72.7309 110.562 72.5194 110.793 72.3926C111.024 72.2658 111.295 72.2337 111.55 72.303ZM24 60.9529C24.0007 61.0842 23.9754 61.2144 23.9258 61.3359C23.8761 61.4575 23.803 61.5681 23.7106 61.6614C23.6182 61.7547 23.5083 61.8289 23.3872 61.8798C23.2661 61.9306 23.1362 61.9571 23.0049 61.9578C22.8736 61.9584 22.7434 61.9332 22.6218 61.8835C22.5003 61.8339 22.3897 61.7607 22.2964 61.6683C22.203 61.5759 22.1288 61.466 22.078 61.345C22.0272 61.2239 22.0007 61.094 22 60.9627C21.9987 60.6974 22.1028 60.4426 22.2895 60.2541C22.4761 60.0657 22.7299 59.9591 22.9951 59.9578C23.2603 59.9565 23.5152 60.0606 23.7037 60.2472C23.8921 60.4338 23.9987 60.6877 24 60.9529ZM99.54 30.1829C99.4463 30.0907 99.3729 29.9799 99.3247 29.8576C99.2764 29.7353 99.2543 29.6042 99.2597 29.4729C99.2593 29.3418 99.2857 29.2121 99.3374 29.0917C99.389 28.9712 99.4648 28.8627 99.56 28.7727C99.7506 28.5904 100.005 28.4904 100.269 28.4941C100.533 28.4979 100.784 28.6051 100.97 28.7927C101.73 29.5627 102.45 30.363 103.13 31.1628C103.299 31.3669 103.381 31.6288 103.36 31.8928C103.352 32.0243 103.317 32.1526 103.256 32.2697C103.196 32.3868 103.112 32.4901 103.01 32.573C102.83 32.7244 102.604 32.8091 102.37 32.8127C102.223 32.8134 102.077 32.7815 101.944 32.7193C101.811 32.6571 101.693 32.5661 101.6 32.4529C100.95 31.6829 100.26 30.9231 99.54 30.1829V30.1829ZM105.59 85.6228C105.809 85.7721 105.96 86.0023 106.01 86.263C106.034 86.3923 106.033 86.5253 106.005 86.6542C105.978 86.783 105.925 86.905 105.85 87.013C104.424 89.0641 102.839 91 101.11 92.803C101.017 92.8994 100.905 92.9758 100.781 93.0274C100.657 93.0789 100.524 93.1046 100.39 93.1028C100.193 93.1043 100.001 93.0477 99.8364 92.9401C99.672 92.8324 99.5433 92.6785 99.4663 92.4978C99.3893 92.317 99.3676 92.1175 99.4038 91.9245C99.44 91.7314 99.5326 91.5534 99.6699 91.4128C101.326 89.6906 102.841 87.838 104.2 85.8728C104.357 85.663 104.588 85.5205 104.846 85.4742C105.104 85.4278 105.369 85.4809 105.59 85.6228L105.59 85.6228ZM27.3496 81.1926C27.161 81.193 26.9761 81.1396 26.8168 81.0387C26.6574 80.9378 26.5301 80.7935 26.4497 80.6228C25.376 78.3696 24.4897 76.0318 23.7998 73.633C23.7607 73.507 23.7474 73.3743 23.7606 73.243C23.7738 73.1117 23.8133 72.9844 23.8768 72.8686C23.9403 72.7529 24.0264 72.6511 24.13 72.5694C24.2337 72.4877 24.3527 72.4276 24.48 72.3928C24.7345 72.3247 25.0054 72.3574 25.2364 72.4841C25.4674 72.6108 25.6405 72.8218 25.7197 73.073C26.3769 75.3704 27.2266 77.6084 28.2597 79.763C28.3679 80.0059 28.3821 80.2802 28.2997 80.533C28.2546 80.6562 28.1854 80.7692 28.0961 80.8654C28.0069 80.9615 27.8993 81.0389 27.7797 81.093C27.6467 81.1611 27.499 81.1953 27.3496 81.1926ZM30.3496 36.1829C30.1335 36.0306 29.9861 35.7993 29.9393 35.5391C29.8925 35.2789 29.9501 35.0107 30.0996 34.7927C31.5164 32.7344 33.0983 30.7947 34.8296 28.9929C35.0162 28.8084 35.2663 28.7024 35.5287 28.6968C35.791 28.6911 36.0455 28.7863 36.2398 28.9627C36.4276 29.1487 36.5383 29.3987 36.5498 29.6629C36.553 29.7954 36.5299 29.9273 36.4819 30.0509C36.4339 30.1745 36.3619 30.2874 36.27 30.383C34.6139 32.1054 33.099 33.958 31.7397 35.923C31.6667 36.0327 31.5724 36.1267 31.4624 36.1994C31.3525 36.2721 31.229 36.322 31.0995 36.3462C30.9699 36.3704 30.8368 36.3684 30.708 36.3404C30.5792 36.3123 30.4574 36.2587 30.3496 36.1828L30.3496 36.1829ZM23.7398 48.283C24.0298 47.263 24.3599 46.2327 24.7198 45.2327C24.8145 44.9845 25.0022 44.7831 25.2431 44.6711C25.484 44.5592 25.759 44.5455 26.0098 44.6331C26.2574 44.7254 26.4589 44.9111 26.5711 45.1504C26.6833 45.3897 26.6972 45.6634 26.6099 45.9128C26.2598 46.8528 25.9497 47.843 25.6597 48.8328C25.6016 49.0427 25.4762 49.2279 25.3028 49.3597C25.1294 49.4916 24.9175 49.5629 24.6997 49.5628C24.6085 49.5592 24.518 49.5458 24.4297 49.5228C24.1744 49.4488 23.9588 49.277 23.8295 49.0449C23.7003 48.8127 23.6681 48.5388 23.7398 48.283Z" fill="url(#paint0_linear)"/>
<defs>
<linearGradient id="paint0_linear" x1="22" y1="57.9692" x2="114.155" y2="57.9692" gradientUnits="userSpaceOnUse">
<stop stop-color="#48BFE3"/>
<stop offset="1" stop-color="#72EFDD"/>
</linearGradient>
</defs>
</svg>
