<svg width="90" height="90" viewBox="0 0 90 90" fill="none" xmlns="http://www.w3.org/2000/svg">
<path d="M45 0C33.0653 0 21.6193 4.74106 13.1802 13.1802C4.74106 21.6193 0 33.0653 0 45C0.00445802 55.4575 3.65095 65.587 10.3129 73.648C16.9749 81.7089 26.2363 87.1979 36.5059 89.1719L38.7871 38.0938H28.4355C27.4805 38.0938 26.5779 37.8098 25.8438 37.248C25.1096 36.6863 24.5195 35.7567 24.5195 34.666V33.584V23.7051C24.5195 22.6144 25.1106 21.6773 25.8438 21.1133C26.5769 20.5493 27.4775 20.2617 28.4355 20.2617H38.9023C39.9463 18.3657 41.9533 17.082 44.2578 17.082C46.5715 17.082 48.5801 18.368 49.6211 20.2617H53.2188C53.3511 20.2617 53.4734 20.3053 53.6035 20.3164C53.9633 20.2244 54.3427 20.2553 54.6836 20.4043L69.7539 27.0508C70.1418 27.2228 70.4528 27.5364 70.6258 27.9303C70.7989 28.3241 70.8216 28.7697 70.6895 29.1797C70.8221 29.5899 70.7997 30.036 70.6266 30.4303C70.4535 30.8245 70.1422 31.1385 69.7539 31.3105L54.6836 37.9512C54.3386 38.1033 53.9539 38.1342 53.5898 38.0391C53.464 38.0495 53.3465 38.0938 53.2188 38.0938H50.502L52.5605 89.3574C63.0329 87.5726 72.5361 82.1403 79.3882 74.0221C86.2403 65.9039 89.9993 55.6234 90 45C90 33.0653 85.2589 21.6193 76.8198 13.1802C68.3807 4.74106 56.9347 0 45 0V0Z" fill="#DB504A"/>
</svg>
