<svg width="86" height="82" viewBox="0 0 86 82" fill="none" xmlns="http://www.w3.org/2000/svg">
<circle cx="7.5" cy="7.5" r="4.5" fill="#FF5454"/>
<circle cx="19.5" cy="7.5" r="4.5" fill="#E9B500"/>
<circle cx="31.5" cy="7.5" r="4.5" fill="#559B58"/>
<path d="M78.0822 0H42.9178H7.75333C3.43778 0 0 3.43778 0 7.75333V15.3678V15.6444V69.6378V73.5145C0 77.81 3.43778 81.2678 7.75333 81.2678H42.9178H78.0822C82.4 81.2678 85.8356 77.8111 85.8356 73.5145V69.6378V15.6444V15.3678V7.75333C85.8356 3.43667 82.4 0 78.0822 0ZM31.15 3.87667C33.3067 3.87667 35.1644 5.59556 35.1644 7.75333C35.1644 9.91 33.3067 11.63 31.15 11.63C28.9933 11.63 27.2733 9.91 27.2733 7.75333C27.2733 5.59556 28.9933 3.87667 31.15 3.87667ZM19.52 3.87667C21.6767 3.87667 23.3967 5.59556 23.3967 7.75333C23.3967 9.91 21.6767 11.63 19.52 11.63C17.3633 11.63 15.5056 9.91 15.5056 7.75333C15.5056 5.59556 17.3633 3.87667 19.52 3.87667ZM7.75333 3.87667C9.91 3.87667 11.63 5.59556 11.63 7.75333C11.63 9.91 9.91 11.63 7.75333 11.63C5.59667 11.63 3.87667 9.91 3.87667 7.75333C3.87667 5.59556 5.59667 3.87667 7.75333 3.87667ZM83.6211 69.6367C83.6211 73.2278 80.7044 76.1433 77.1144 76.1433H8.72222C5.13444 76.1433 2.21556 73.2278 2.21556 69.6367V17.5811C6.68889 17.5811 79.1478 17.5811 83.6211 17.5811V69.6367Z" fill="black"/>
<path d="M35.6411 29.03L33.4314 26.8203L22.3829 37.8688L24.5926 40.0785L35.6411 29.03Z" fill="#8D8D8D"/>
<path d="M19.0683 23.5057C16.0222 26.5518 16.0222 31.5082 19.0683 34.5543L20.1731 35.6591L31.2217 24.6106L30.1168 23.5057C27.0707 20.4596 22.1143 20.4596 19.0683 23.5057Z" fill="#F17A24"/>
<path d="M53.3188 59.9659L31.2217 37.8688L26.8023 42.2882L48.8993 64.3853L53.3188 59.9659Z" fill="#E9B500"/>
<path d="M67.6818 72.1193C67.905 71.8961 67.9724 71.5614 67.8508 71.2675L66.1162 67.0558L62.6171 70.5548L66.8311 72.2895C67.1238 72.4099 67.4586 72.3425 67.6818 72.1193Z" fill="#3E3E3E"/>
<path d="M59.9479 53.3368L37.8508 31.2397L33.4314 35.6591L55.5285 57.7562L59.9479 53.3368Z" fill="#E9B500"/>
<path d="M51.6613 66.0426L59.487 69.2655L64.8278 63.9246L61.605 56.0989L51.6613 66.0426Z" fill="#EBDFB4"/>
<path fill-rule="evenodd" clip-rule="evenodd" d="M58.5694 22.9146C58.7868 22.6673 58.8423 22.3092 58.7059 22.0065C58.5695 21.7039 58.2668 21.5036 57.9343 21.5036C55.4235 21.5632 52.9255 22.5394 51.0073 24.4491C47.0685 28.3709 47.0558 34.7523 50.9775 38.6911C54.8993 42.6299 61.2806 42.647 65.2194 38.7252C67.1376 36.8155 68.1266 34.3217 68.182 31.8109C68.1777 31.4827 67.986 31.1885 67.6876 31.0564C67.3934 30.92 67.0439 30.9712 66.8009 31.1843C64.8229 32.8766 61.2934 35.9374 61.2934 35.9374L56.5318 33.3114L53.7781 28.388C53.7781 28.388 56.8558 24.8712 58.5694 22.9146Z" fill="#BABABA"/>
<path fill-rule="evenodd" clip-rule="evenodd" d="M18.2311 63.3725C17.9838 63.5899 17.63 63.6411 17.3273 63.5089C17.0247 63.3725 16.8286 63.0741 16.8201 62.7416C16.8712 60.0731 17.9071 57.4217 19.9447 55.3926C24.0753 51.279 30.7722 51.2919 34.8857 55.4267C38.9951 59.5574 38.9822 66.2499 34.8516 70.3635C32.814 72.3926 30.154 73.4156 27.4898 73.437C27.1616 73.4327 26.8717 73.2365 26.7395 72.9381C26.6074 72.644 26.6628 72.2945 26.876 72.0516C28.645 70.0054 31.9486 66.2328 31.9486 66.2328L29.2162 61.2241L24.0625 58.3127C24.0625 58.3127 20.2772 61.5992 18.2311 63.3725Z" fill="#BABABA"/>
<path fill-rule="evenodd" clip-rule="evenodd" d="M31.6375 51.3643L47.1581 35.9075C47.7293 37.3611 48.5989 38.721 49.7669 39.8975C51.2205 41.3554 52.9599 42.3527 54.8057 42.8899L38.931 58.6962C38.3427 57.0636 37.3963 55.5333 36.0919 54.2203C34.7875 52.9159 33.2658 51.9611 31.6375 51.3643Z" fill="#6D6D6D"/>
</svg>
